<svg width="30" height="30" viewBox="0 0 30 30" fill="none" xmlns="http://www.w3.org/2000/svg">
<path d="M11.106 24.8434C9.84987 23.7015 9.46162 21.2577 9.9869 19.4992C10.9004 20.6183 12.1794 20.9608 13.504 21.1664C15.5367 21.4633 17.5236 21.3491 19.4192 20.4356L20.0587 20.0473C20.305 20.8846 20.2784 21.7786 19.9827 22.5998C19.6871 23.421 19.1378 24.1268 18.4143 24.615L17.1582 25.4829C15.8792 26.3507 15.5138 27.3556 16.0163 28.8401L16.0619 29C15.437 28.7436 14.9093 28.2959 14.5546 27.721C14.1708 27.1376 13.9645 26.4553 13.9608 25.7569C13.9608 25.4143 13.9608 25.0718 13.9151 24.7292C13.8009 23.8842 13.4127 23.5188 12.659 23.4959C11.9053 23.4731 11.3115 23.9527 11.1517 24.6835L11.106 24.8434Z" fill="url(#paint0_linear_68_78)"/>
<path d="M3.86621 19.2023C3.86621 19.2023 7.63456 17.3752 11.4029 17.3752L14.2349 8.62806C14.3491 8.17129 14.646 7.89723 14.9886 7.89723C15.354 7.89723 15.6737 8.19413 15.7651 8.62806L18.597 17.3752C23.0734 17.3752 26.1337 19.2023 26.1337 19.2023L19.739 1.84502C19.5563 1.31974 19.2365 1 18.8254 1H11.1745C10.7634 1 10.4665 1.31974 10.261 1.84502L3.86621 19.2023Z" fill="#17191E"/>
<defs>
<linearGradient id="paint0_linear_68_78" x1="14.9885" y1="27.6068" x2="17.889" y2="18.0604" gradientUnits="userSpaceOnUse">
<stop stop-color="#D83333"/>
<stop offset="1" stop-color="#F041FF"/>
</linearGradient>
</defs>
</svg>
