<svg width="30" height="30" viewBox="0 0 30 30" fill="none" xmlns="http://www.w3.org/2000/svg">
<path d="M26.0192 9.90153C25.9625 9.84128 25.9023 9.78103 25.842 9.72432C25.7818 9.66761 25.7251 9.60381 25.6648 9.5471C25.6046 9.49039 25.5479 9.4266 25.4876 9.36989C25.4273 9.31318 25.3706 9.24938 25.3104 9.19267C25.2501 9.13596 25.1934 9.07217 25.1332 9.01546C25.0729 8.95875 25.0162 8.89495 24.956 8.83824C24.8957 8.78153 24.839 8.71773 24.7787 8.66103C26.5368 10.3888 27.5439 12.7392 27.5823 15.2038C27.5823 21.0767 21.6208 25.8544 14.2911 25.8544C10.1868 25.8544 6.51495 24.3552 4.07292 22.0053L4.25014 22.1825L4.42735 22.3598L4.60457 22.537L4.78178 22.7142L4.959 22.8914L5.13621 23.0686L5.31343 23.2458C7.75191 25.6949 11.5053 27.2722 15.7089 27.2722C23.0385 27.2722 29 22.4944 29 16.6393C29 14.137 27.9225 11.7658 26.0192 9.90153Z" fill="black"/>
<path d="M26.6962 15.2038C26.6962 20.5947 21.1423 24.9648 14.2911 24.9648C7.44 24.9648 1.88608 20.5947 1.88608 15.2038C1.88608 11.8615 4.01266 8.90913 7.28051 7.15825C10.5484 5.40736 12.5828 3.61394 14.2911 3.61394C15.9995 3.61394 17.4597 5.07774 21.3018 7.15825C24.5696 8.90913 26.6962 11.8615 26.6962 15.2038Z" fill="#FBF0DF"/>
<path d="M26.6962 15.2038C26.6945 14.5113 26.5991 13.8222 26.4127 13.1552C25.4451 24.9577 11.0481 25.5248 5.38785 21.9947C7.93231 23.9669 11.0722 25.0143 14.2911 24.9648C21.1316 24.9648 26.6962 20.5876 26.6962 15.2038Z" fill="#F6DECE"/>
<path d="M9.51696 6.50964C11.1013 5.55977 13.2066 3.77698 15.2765 3.77344C14.958 3.67051 14.6258 3.61673 14.2911 3.61394C13.4334 3.61394 12.519 4.05698 11.3671 4.72331C10.9666 4.95723 10.5519 5.21597 10.1124 5.48533C9.28658 5.99571 8.34025 6.57344 7.27696 7.15116C3.90279 8.97647 1.88608 11.9856 1.88608 15.2038C1.88608 15.3456 1.88608 15.4874 1.88608 15.6256C4.03393 8.03723 7.9362 7.45951 9.51696 6.50964Z" fill="#FFFEFC"/>
<path fill-rule="evenodd" clip-rule="evenodd" d="M13.2704 4.51064C13.2753 5.34753 13.0996 6.17563 12.7553 6.9384C12.4109 7.70117 11.9059 8.38063 11.2749 8.93039C11.1757 9.019 11.2537 9.18912 11.3813 9.1395C12.5757 8.6752 14.1884 7.28583 13.5079 4.48229C13.4795 4.3228 13.2704 4.36533 13.2704 4.51064ZM14.0749 4.51064C14.5086 5.21824 14.7841 6.01124 14.8826 6.83529C14.9811 7.65935 14.9003 8.49495 14.6456 9.28482C14.603 9.40887 14.7554 9.5152 14.8405 9.41242C15.6167 8.42001 16.2937 6.44938 14.2663 4.3228C14.1635 4.23064 14.0041 4.37242 14.0749 4.49647V4.51064ZM15.0532 4.45039C15.7323 4.93119 16.3004 5.55204 16.7193 6.27106C17.1381 6.99008 17.3978 7.79056 17.481 8.61849C17.4774 8.64833 17.4855 8.6784 17.5034 8.70247C17.5214 8.72654 17.548 8.74277 17.5776 8.74778C17.6073 8.7528 17.6377 8.74621 17.6626 8.7294C17.6875 8.71259 17.705 8.68683 17.7114 8.65748C18.0375 7.42052 17.8532 5.31166 15.1701 4.21647C15.0284 4.15976 14.9362 4.35115 15.0532 4.43621V4.45039ZM8.51039 8.13647C9.31823 7.89512 10.0662 7.48634 10.7056 6.93674C11.3449 6.38714 11.8614 5.70904 12.2213 4.94659C12.2851 4.819 12.4871 4.86862 12.4552 5.01039C11.842 7.84583 9.78988 8.43773 8.51393 8.35976C8.37925 8.3633 8.38279 8.17545 8.51039 8.13647Z" fill="#CCBEA7"/>
<path d="M14.2911 25.8544C6.96152 25.8544 1 21.0767 1 15.2038C1 11.6595 3.19038 8.35268 6.85873 6.37141C7.92202 5.80432 8.83291 5.23369 9.64456 4.73394C10.0911 4.45749 10.5129 4.19875 10.9205 3.95774C12.1646 3.22053 13.2278 2.72787 14.2911 2.72787C15.3544 2.72787 16.283 3.15318 17.4456 3.84078C17.8 4.0428 18.1544 4.26255 18.5337 4.50356C19.4162 5.04939 20.4121 5.66609 21.7235 6.37141C25.3919 8.35268 27.5823 11.656 27.5823 15.2038C27.5823 21.0767 21.6208 25.8544 14.2911 25.8544ZM14.2911 3.61394C13.4334 3.61394 12.519 4.05698 11.3671 4.72331C10.9666 4.95723 10.5519 5.21597 10.1124 5.48533C9.28658 5.99571 8.34025 6.57344 7.27696 7.15116C3.90278 8.97647 1.88608 11.9856 1.88608 15.2038C1.88608 20.5876 7.45063 24.9684 14.2911 24.9684C21.1316 24.9684 26.6962 20.5876 26.6962 15.2038C26.6962 11.9856 24.6795 8.97647 21.3018 7.15825C19.962 6.44939 18.9165 5.78306 18.0694 5.2585C17.683 5.02103 17.3286 4.80128 17.0061 4.60635C15.9321 3.96837 15.1489 3.61394 14.2911 3.61394Z" fill="black"/>
<path d="M16.7899 17.7912C16.6307 18.4433 16.2682 19.0279 15.7549 19.4605C15.3696 19.8341 14.8707 20.0686 14.3372 20.1269C13.7877 20.0778 13.2713 19.8427 12.8734 19.4605C12.3654 19.0259 12.008 18.4415 11.8527 17.7912C11.8475 17.7526 11.8513 17.7133 11.8636 17.6764C11.876 17.6394 11.8967 17.6058 11.924 17.5781C11.9514 17.5504 11.9848 17.5293 12.0215 17.5165C12.0583 17.5037 12.0975 17.4994 12.1362 17.5041H16.5099C16.5483 17.5 16.5871 17.5047 16.6234 17.5178C16.6597 17.5309 16.6926 17.552 16.7196 17.5797C16.7465 17.6073 16.7668 17.6407 16.779 17.6773C16.7912 17.714 16.7949 17.7529 16.7899 17.7912Z" fill="#B71422"/>
<path d="M12.8734 19.4889C13.2705 19.8713 13.785 20.1086 14.3337 20.1623C14.8811 20.1078 15.3942 19.8706 15.7904 19.4889C15.9171 19.3708 16.0355 19.2441 16.1448 19.1097C15.9265 18.862 15.6598 18.6616 15.3611 18.5208C15.0624 18.38 14.7381 18.3018 14.4081 18.2909C14.055 18.2993 13.7092 18.3934 13.4005 18.565C13.0918 18.7366 12.8294 18.9807 12.636 19.2763C12.7175 19.3507 12.7884 19.4216 12.8734 19.4889Z" fill="#FF6164"/>
<path d="M12.9301 19.2089C13.1058 18.9818 13.3308 18.7974 13.588 18.6698C13.8452 18.5421 14.128 18.4744 14.4152 18.4717C14.946 18.4874 15.4517 18.701 15.8329 19.0707C15.9144 18.9821 15.9924 18.8899 16.0668 18.7978C15.6159 18.3684 15.02 18.1242 14.3975 18.1137C14.0648 18.1166 13.7368 18.1931 13.4371 18.3377C13.1375 18.4823 12.8736 18.6915 12.6643 18.9502C12.7481 19.0412 12.8368 19.1276 12.9301 19.2089Z" fill="black"/>
<path d="M14.323 20.3395C13.7324 20.2878 13.1766 20.038 12.7458 19.6307C12.1972 19.1666 11.811 18.5396 11.6435 17.8408C11.6315 17.7786 11.6336 17.7145 11.6495 17.6531C11.6655 17.5918 11.6949 17.5348 11.7357 17.4864C11.7843 17.4277 11.8456 17.3809 11.915 17.3496C11.9844 17.3183 12.0601 17.3032 12.1362 17.3056H16.5099C16.5859 17.304 16.6613 17.3194 16.7306 17.3507C16.7999 17.3819 16.8613 17.4283 16.9104 17.4864C16.9508 17.535 16.9797 17.5921 16.995 17.6535C17.0104 17.7148 17.0117 17.7788 16.999 17.8408C16.8315 18.5396 16.4453 19.1666 15.8967 19.6307C15.4668 20.0372 14.9124 20.287 14.323 20.3395ZM12.1362 17.7167C12.0795 17.7167 12.0653 17.7415 12.0618 17.7486C12.2116 18.3546 12.5505 18.8971 13.0294 19.2975C13.3795 19.6425 13.8348 19.8608 14.323 19.9177C14.81 19.8614 15.2648 19.6459 15.6167 19.3046C16.0941 18.9035 16.4317 18.3611 16.5808 17.7557C16.573 17.7444 16.5623 17.7354 16.5498 17.7298C16.5373 17.7242 16.5235 17.7221 16.5099 17.7238L12.1362 17.7167Z" fill="black"/>
<path d="M19.6856 18.0109C20.8307 18.0109 21.759 17.4651 21.759 16.7917C21.759 16.1183 20.8307 15.5724 19.6856 15.5724C18.5404 15.5724 17.6121 16.1183 17.6121 16.7917C17.6121 17.4651 18.5404 18.0109 19.6856 18.0109Z" fill="#FEBBD0"/>
<path d="M8.95696 18.0109C10.1021 18.0109 11.0304 17.4651 11.0304 16.7917C11.0304 16.1183 10.1021 15.5724 8.95696 15.5724C7.81185 15.5724 6.88354 16.1183 6.88354 16.7917C6.88354 17.4651 7.81185 18.0109 8.95696 18.0109Z" fill="#FEBBD0"/>
<path fill-rule="evenodd" clip-rule="evenodd" d="M9.93165 16.3026C10.3181 16.3033 10.696 16.1893 11.0176 15.9752C11.3392 15.761 11.5901 15.4562 11.7384 15.0995C11.8868 14.7427 11.926 14.3499 11.851 13.9708C11.7761 13.5918 11.5903 13.2435 11.3174 12.97C11.0444 12.6965 10.6964 12.5102 10.3175 12.4345C9.93857 12.3589 9.54572 12.3974 9.18867 12.5451C8.83162 12.6928 8.5264 12.9431 8.31166 13.2643C8.09691 13.5855 7.98229 13.9633 7.98228 14.3497C7.98228 14.867 8.18755 15.3632 8.55303 15.7293C8.9185 16.0955 9.41432 16.3016 9.93165 16.3026ZM18.7109 16.3026C19.0977 16.3054 19.4767 16.1932 19.7997 15.9804C20.1227 15.7675 20.3752 15.4635 20.5252 15.1069C20.6752 14.7503 20.7159 14.3572 20.6422 13.9774C20.5684 13.5977 20.3836 13.2484 20.111 12.9738C19.8385 12.6993 19.4905 12.5119 19.1113 12.4354C18.7321 12.3589 18.3387 12.3967 17.981 12.5441C17.6234 12.6915 17.3175 12.9418 17.1023 13.2632C16.8871 13.5847 16.7722 13.9628 16.7722 14.3497C16.7712 14.8654 16.9747 15.3606 17.3381 15.7266C17.7015 16.0926 18.1951 16.2997 18.7109 16.3026Z" fill="black"/>
<path fill-rule="evenodd" clip-rule="evenodd" d="M9.32911 14.4737C9.47437 14.4744 9.61656 14.432 9.73768 14.3518C9.85879 14.2716 9.95338 14.1573 10.0095 14.0233C10.0655 13.8893 10.0806 13.7416 10.0527 13.5991C10.0247 13.4565 9.95516 13.3255 9.85269 13.2225C9.75023 13.1196 9.61951 13.0493 9.47709 13.0207C9.33468 12.9921 9.18698 13.0065 9.05272 13.0619C8.91845 13.1173 8.80365 13.2113 8.72288 13.3321C8.64211 13.4528 8.59899 13.5948 8.59898 13.74C8.59898 13.934 8.67579 14.1201 8.81262 14.2576C8.94944 14.3951 9.13514 14.4728 9.32911 14.4737ZM18.1083 14.4737C18.2536 14.4744 18.3958 14.432 18.5169 14.3518C18.638 14.2716 18.7326 14.1573 18.7887 14.0233C18.8448 13.8893 18.8598 13.7416 18.8319 13.5991C18.804 13.4565 18.7344 13.3255 18.6319 13.2225C18.5295 13.1196 18.3987 13.0493 18.2563 13.0207C18.1139 12.9921 17.9662 13.0065 17.832 13.0619C17.6977 13.1173 17.5829 13.2113 17.5021 13.3321C17.4213 13.4528 17.3782 13.5948 17.3782 13.74C17.3782 13.9328 17.454 14.1178 17.5893 14.2551C17.7246 14.3924 17.9085 14.4709 18.1013 14.4737H18.1083Z" fill="white"/>
</svg>
