<svg width="30" height="30" viewBox="0 0 30 30" fill="none" xmlns="http://www.w3.org/2000/svg">
<path d="M25.213 12.2877C25.0594 11.213 24.4965 10.343 23.4218 9.52419L22.8077 9.11478L22.3983 9.72889C21.8865 10.4965 21.6307 11.6224 21.6818 12.6459C21.733 13.0042 21.8354 13.6694 22.2448 14.2324C21.8865 14.4371 21.1189 14.693 20.1466 14.693H1.1091L1.05793 14.8977C0.904401 16.0235 0.904401 19.2988 3.05379 21.8064C4.69142 23.7511 7.09669 24.7234 10.2696 24.7234C17.1784 24.7234 22.2448 21.5505 24.65 15.7677C25.5712 15.7677 27.6182 15.7677 28.6418 13.7718C28.6929 13.7206 28.7441 13.6183 28.8976 13.2089L29 13.0042L28.4371 12.5947C27.823 12.2365 26.3388 12.083 25.213 12.2877ZM16.3084 5.27658H13.3913V7.88656H16.3084V5.27658ZM16.3084 8.44949H13.3913V11.0595H16.3084V8.44949ZM12.8796 8.44949H9.96254V11.0595H12.8796V8.44949ZM9.50196 8.44949H6.58493V11.0595H9.50196V8.44949ZM6.07317 11.5712H3.15614V14.1812H6.07317V11.5712ZM9.50196 11.5712H6.58493V14.1812H9.50196V11.5712ZM12.8796 11.5712H9.96254V14.1812H12.8796V11.5712ZM16.3084 11.5712H13.3913V14.1812H16.3084V11.5712ZM19.7372 11.5712H16.8201V14.1812H19.7372V11.5712Z" fill="#003F8C"/>
</svg>
