<svg width="30" height="30" viewBox="0 0 30 30" fill="none" xmlns="http://www.w3.org/2000/svg">
<path d="M8.13569 13.6453H3.0811L2.67676 14.2191L8.04212 14.2161L8.13569 13.6453Z" fill="#00ACD7"/>
<path d="M7.95716 14.8347H1.41599L1 15.4062L7.86359 15.4013L7.95716 14.8347Z" fill="#00ACD7"/>
<path d="M7.77872 16.0236H4.98405L4.60828 16.5974L7.68515 16.5952L7.77872 16.0236Z" fill="#00ACD7"/>
<path d="M9.09309 11.9231H13.5213L13.3056 13.1966H10.4455L10.2302 14.5269H12.8084L12.5931 15.8045H10.0149L9.58386 18.4113H8.01611L9.09309 11.9231Z" fill="#333333"/>
<path d="M13.5931 13.545H15.1421L14.3326 18.4102H12.7837L13.5931 13.545ZM13.781 12.2339C13.8449 11.8262 14.2473 11.4959 14.6829 11.4959C15.1184 11.4959 15.4288 11.8262 15.3747 12.2339C15.3206 12.6416 14.9155 12.9749 14.4785 12.9749C14.0414 12.9749 13.7216 12.639 13.781 12.2339Z" fill="#333333"/>
<path d="M15.9458 11.9231H17.4944L17.0923 14.3781H17.1254C17.3787 13.9313 17.8826 13.4819 18.6522 13.4819C19.669 13.4819 20.4559 14.2642 20.1692 15.9808C19.8968 17.6372 18.8833 18.4797 17.8063 18.4797C17.0717 18.4797 16.7042 18.0712 16.5903 17.6214H16.5298L16.4032 18.4106H14.8707L15.9458 11.9231ZM17.4756 17.275C18.0457 17.275 18.4526 16.765 18.5778 15.9797C18.7029 15.1943 18.4763 14.6934 17.9014 14.6934C17.3343 14.6934 16.9195 15.1845 16.7928 15.9797C16.6647 16.7662 16.9086 17.275 17.4756 17.275Z" fill="#333333"/>
<path d="M20.3492 15.9973C20.5991 14.4897 21.7141 13.4826 23.1807 13.4826C24.5617 13.4826 25.3854 14.3661 25.1194 15.9657L25.0589 16.352H21.8189L21.8091 16.4092C21.7111 17.0269 22.0023 17.3862 22.6073 17.3862C23.0097 17.3862 23.3588 17.2152 23.5355 16.889L24.948 16.93C24.603 17.8867 23.6749 18.5041 22.3927 18.5041C20.8652 18.5019 20.0862 17.5519 20.3492 15.9973ZM23.7636 15.4524C23.8428 14.9553 23.5449 14.6005 23.0383 14.6005C22.5378 14.6005 22.0944 14.9711 21.9835 15.4524H23.7636Z" fill="#333333"/>
<path d="M25.8735 13.545H27.3767L27.2263 14.4318H27.2771C27.5653 13.7889 28.0433 13.4796 28.5754 13.4796C28.7185 13.4806 28.861 13.4982 29 13.5322L28.7719 14.8816C28.6295 14.8279 28.3665 14.7993 28.1733 14.7993C27.6254 14.7993 27.1501 15.189 27.049 15.7685L26.6116 18.4102H25.063L25.8735 13.545Z" fill="#333333"/>
</svg>
