<svg width="30" height="30" viewBox="0 0 30 30" fill="none" xmlns="http://www.w3.org/2000/svg">
<path d="M15 15C15 13.7623 15.4917 12.5753 16.3668 11.7001C17.242 10.825 18.429 10.3333 19.6667 10.3333C20.9043 10.3333 22.0913 10.825 22.9665 11.7001C23.8417 12.5753 24.3333 13.7623 24.3333 15C24.3333 16.2377 23.8417 17.4246 22.9665 18.2998C22.0913 19.175 20.9043 19.6666 19.6667 19.6666C18.429 19.6666 17.242 19.175 16.3668 18.2998C15.4917 17.4246 15 16.2377 15 15Z" fill="#1ABCFE"/>
<path d="M5.66667 24.3334C5.66667 23.0957 6.15833 21.9087 7.0335 21.0335C7.90867 20.1584 9.09566 19.6667 10.3333 19.6667H15V24.3334C15 25.571 14.5083 26.758 13.6332 27.6332C12.758 28.5084 11.571 29 10.3333 29C9.09566 29 7.90867 28.5084 7.0335 27.6332C6.15833 26.758 5.66667 25.571 5.66667 24.3334Z" fill="#0ACF83"/>
<path d="M15 1V10.3333H19.6667C20.9043 10.3333 22.0913 9.84167 22.9665 8.9665C23.8417 8.09133 24.3333 6.90434 24.3333 5.66667C24.3333 4.42899 23.8417 3.242 22.9665 2.36683C22.0913 1.49167 20.9043 1 19.6667 1L15 1Z" fill="#FF7262"/>
<path d="M5.66667 5.66667C5.66667 6.90434 6.15833 8.09133 7.0335 8.9665C7.90867 9.84167 9.09566 10.3333 10.3333 10.3333H15V1H10.3333C9.09566 1 7.90867 1.49167 7.0335 2.36683C6.15833 3.242 5.66667 4.42899 5.66667 5.66667Z" fill="#F24E1E"/>
<path d="M5.66667 15C5.66667 16.2377 6.15833 17.4246 7.0335 18.2998C7.90867 19.175 9.09566 19.6666 10.3333 19.6666H15V10.3333H10.3333C9.09566 10.3333 7.90867 10.825 7.0335 11.7001C6.15833 12.5753 5.66667 13.7623 5.66667 15Z" fill="#A259FF"/>
</svg>
