<svg width="30" height="30" viewBox="0 0 30 30" fill="none" xmlns="http://www.w3.org/2000/svg">
<path d="M1.58536 16.4132C0.804879 15.6327 0.804881 14.3673 1.58536 13.5868L13.5868 1.58538C14.3673 0.804894 15.6327 0.804896 16.4132 1.58538L28.4146 13.5868C29.1951 14.3673 29.1951 15.6327 28.4146 16.4132L16.4132 28.4147C15.6327 29.1951 14.3673 29.1951 13.5868 28.4147L1.58536 16.4132Z" fill="#EE513B"/>
<path d="M11.1493 4.06166L9.93396 5.277L13.0729 8.4159C12.9459 8.68833 12.875 8.99214 12.875 9.31252C12.875 10.2221 13.4465 10.9982 14.25 11.3014V18.9799C13.4465 19.2831 12.875 20.0592 12.875 20.9688C12.875 22.1424 13.8264 23.0938 15 23.0938C16.1736 23.0938 17.125 22.1424 17.125 20.9688C17.125 20.1441 16.6553 19.4292 15.9688 19.0769V11.3118L18.9693 14.3123C18.8485 14.5792 18.7813 14.8755 18.7813 15.1875C18.7813 16.3611 19.7326 17.3125 20.9063 17.3125C22.0799 17.3125 23.0313 16.3611 23.0313 15.1875C23.0313 14.0139 22.0799 13.0625 20.9063 13.0625C20.6782 13.0625 20.4585 13.0984 20.2526 13.165L17.0301 9.94245C17.0918 9.7434 17.125 9.53184 17.125 9.31252C17.125 8.13891 16.1736 7.18752 15 7.18752C14.7807 7.18752 14.5691 7.22075 14.3701 7.28244L11.1493 4.06166Z" fill="white"/>
</svg>
