<svg width="30" height="30" viewBox="0 0 30 30" fill="none" xmlns="http://www.w3.org/2000/svg">
<path fill-rule="evenodd" clip-rule="evenodd" d="M4.99037 16.1544C5.03687 16.9704 5.85066 16.5974 6.22268 16.3409C6.57145 16.0845 6.68771 16.2943 6.71096 15.8047C6.73421 15.4783 6.75746 15.1752 6.75746 14.8489C6.22268 14.8022 5.6414 14.9188 5.19963 15.2452C4.99037 15.4084 4.5486 15.9446 4.99037 16.1544Z" fill="#C9B8BC"/>
<path d="M5.43214 16.7372C5.26938 16.7372 4.96711 16.6673 4.92061 16.201C4.7811 16.1078 4.7346 15.9912 4.7346 15.9213C4.71135 15.6415 5.01362 15.3151 5.17637 15.1986C5.54839 14.9188 6.03667 14.7789 6.54819 14.7789H6.85046V14.8489C6.87371 15.1053 6.85046 15.3617 6.82721 15.5949C6.82721 15.6648 6.82721 15.7348 6.80396 15.8047C6.7807 16.1544 6.71095 16.201 6.54819 16.271C6.47844 16.2943 6.40869 16.3176 6.29243 16.4108C6.17617 16.4808 5.7809 16.7372 5.43214 16.7372ZM6.54819 14.9188C6.05992 14.9188 5.61815 15.0587 5.26938 15.3151C5.10662 15.4317 4.87411 15.7114 4.89736 15.8979C4.89736 15.9679 4.94386 16.0378 5.03687 16.0845L5.08337 16.1078V16.1544C5.10662 16.5274 5.29263 16.574 5.43214 16.574C5.66465 16.574 5.99016 16.4108 6.19943 16.271C6.33893 16.1777 6.43194 16.1544 6.50169 16.1311C6.61795 16.0845 6.6412 16.0845 6.66445 15.8047C6.66445 15.7348 6.66445 15.6648 6.6877 15.5949C6.71095 15.3851 6.71095 15.1519 6.71095 14.9421C6.6412 14.9188 6.5947 14.9188 6.54819 14.9188Z" fill="#15293D"/>
<path fill-rule="evenodd" clip-rule="evenodd" d="M4.99037 16.1544C5.10662 16.1078 5.24613 16.0845 5.31588 15.9679L4.99037 16.1544Z" fill="#C6B198"/>
<path d="M4.99034 16.2244C4.96709 16.2244 4.92059 16.2011 4.92059 16.1778C4.89734 16.1311 4.92059 16.0845 4.96709 16.0845C4.99034 16.0845 5.01359 16.0612 5.01359 16.0612C5.1066 16.0146 5.1996 15.9912 5.2461 15.9213C5.26935 15.898 5.31586 15.8747 5.36236 15.898C5.38561 15.9213 5.40886 15.9679 5.38561 16.0146C5.2926 16.1311 5.17635 16.1778 5.08334 16.2011L5.03684 16.2244H4.99034Z" fill="#15293D"/>
<path fill-rule="evenodd" clip-rule="evenodd" d="M6.8969 6.293C3.73474 5.4071 6.08311 1.37392 8.61748 3.02915L6.8969 6.293Z" fill="#79D4FD"/>
<path d="M6.94348 6.38618L6.87373 6.36287C5.24615 5.89661 5.2694 4.73095 5.3159 4.38125C5.43216 3.49535 6.2692 2.56282 7.38525 2.56282C7.82703 2.56282 8.24555 2.7027 8.66407 2.98246L8.73382 3.02908L6.94348 6.38618ZM7.38525 2.72601C6.33895 2.72601 5.57166 3.5886 5.45541 4.40456C5.33915 5.24384 5.85068 5.89661 6.85048 6.19968L8.50131 3.0524C8.15254 2.84258 7.78052 2.72601 7.38525 2.72601Z" fill="#15293D"/>
<path fill-rule="evenodd" clip-rule="evenodd" d="M20.9174 2.72604C23.4053 0.977553 25.6839 4.94079 22.7775 5.94326L20.9174 2.72604Z" fill="#79D4FD"/>
<path d="M22.7543 6.03646L20.8244 2.70268L20.8942 2.65605C21.336 2.35298 21.7777 2.18979 22.2195 2.18979C23.2891 2.18979 24.0564 3.07569 24.2191 3.93828C24.2889 4.28797 24.3586 5.47695 22.824 5.98984L22.7543 6.03646ZM21.0337 2.77262L22.824 5.87327C23.7308 5.54689 24.1959 4.84749 24.0564 4.00822C23.9168 3.21557 23.1961 2.39961 22.2195 2.39961C21.8242 2.37629 21.429 2.49286 21.0337 2.77262Z" fill="#15293D"/>
<path fill-rule="evenodd" clip-rule="evenodd" d="M21.4754 26.3189C22.1032 26.7153 23.2658 27.9042 22.3125 28.4871C21.4057 29.3263 20.8941 27.5545 20.0804 27.3214C20.4291 26.8551 20.8709 26.4122 21.4754 26.3189Z" fill="#C9B8BC"/>
<path d="M21.8242 28.7902C21.4522 28.7902 21.1266 28.4172 20.8476 28.0675C20.5919 27.7877 20.3361 27.4846 20.0571 27.3914L19.9408 27.3681L20.0106 27.2748C20.2896 26.8785 20.7546 26.3656 21.4522 26.249H21.4754L21.4987 26.2724C21.8939 26.5288 22.7542 27.2515 22.731 27.9276C22.731 28.184 22.5915 28.3939 22.3357 28.557C22.1729 28.7202 22.0102 28.7902 21.8242 28.7902ZM20.1966 27.2748C20.4756 27.3914 20.7081 27.6945 20.9406 27.9509C21.2196 28.3006 21.4987 28.6037 21.8009 28.6037C21.9404 28.6037 22.0799 28.5337 22.2194 28.3939H22.2427C22.452 28.254 22.5682 28.0908 22.5682 27.881C22.5682 27.3448 21.8939 26.6687 21.4289 26.3656C21.0104 26.4822 20.5919 26.7619 20.1966 27.2748ZM22.3124 28.557C22.2892 28.557 22.2659 28.5337 22.2427 28.5104C22.1962 28.4172 22.1497 28.3006 22.1264 28.2073C22.0567 28.0208 21.9869 27.8343 21.8474 27.6945C21.8242 27.6711 21.8242 27.6245 21.8474 27.5779C21.8707 27.5546 21.9172 27.5546 21.9637 27.5779C22.1264 27.7411 22.2194 27.9509 22.2892 28.1607L22.4055 28.4405C22.4287 28.4871 22.4055 28.5337 22.3822 28.557H22.3124Z" fill="#15293D"/>
<path fill-rule="evenodd" clip-rule="evenodd" d="M10.1289 27.6712C9.38486 27.7877 8.96634 28.4638 8.33856 28.8135C7.75728 29.1632 7.52477 28.6969 7.47827 28.6037C7.38526 28.5571 7.38526 28.6503 7.24575 28.5104C6.71098 27.6479 7.80378 27.0184 8.38506 26.5988C9.19885 26.4123 9.71038 27.1117 10.1289 27.6712Z" fill="#C9B8BC"/>
<path d="M7.9433 29C7.64103 29 7.47828 28.7436 7.43177 28.6503H7.40852C7.33877 28.6503 7.29227 28.627 7.19926 28.5337V28.5104C6.68774 27.6945 7.57128 27.065 8.15256 26.6454L8.36182 26.5055H8.40832C8.50133 26.4822 8.57108 26.4822 8.66409 26.4822C9.36162 26.4822 9.80339 27.0883 10.1754 27.5779L10.2917 27.7411L10.1522 27.7644C9.71039 27.8343 9.38487 28.1141 9.05935 28.3939C8.85009 28.5804 8.64083 28.7436 8.40832 28.8834C8.22231 28.9534 8.08281 29 7.9433 29ZM7.43177 28.5104C7.45502 28.5104 7.47828 28.5104 7.52478 28.5337H7.54803L7.57128 28.5571C7.61778 28.627 7.73404 28.8368 7.96655 28.8368C8.08281 28.8368 8.19906 28.7902 8.31532 28.7202C8.54783 28.6037 8.75709 28.4172 8.9431 28.254C9.24536 27.9975 9.57088 27.7178 9.9894 27.6012C9.64063 27.1349 9.22211 26.6221 8.64083 26.6221C8.57108 26.6221 8.50133 26.6221 8.43157 26.6454L8.24556 26.7852C7.64103 27.2049 6.897 27.7411 7.33877 28.4405C7.36202 28.4871 7.38527 28.5104 7.43177 28.5104ZM7.47828 28.6736C7.43177 28.6736 7.38527 28.627 7.40852 28.5804C7.43177 28.3472 7.54803 28.184 7.66428 27.9975C7.73404 27.9043 7.78054 27.811 7.82704 27.7178C7.85029 27.6712 7.8968 27.6711 7.92005 27.6711C7.96655 27.6945 7.96655 27.7411 7.96655 27.7644C7.92005 27.881 7.85029 27.9742 7.78054 28.0675C7.66428 28.2307 7.57128 28.3705 7.54803 28.5571C7.54803 28.6503 7.52478 28.6736 7.47828 28.6736Z" fill="#15293D"/>
<path fill-rule="evenodd" clip-rule="evenodd" d="M7.03643 5.19723C6.61791 4.98741 6.31565 4.68434 6.57141 4.19476C6.80392 3.75181 7.24569 3.79844 7.66421 4.00825L7.03643 5.19723ZM22.1264 4.77759C22.545 4.56777 22.8472 4.2647 22.5915 3.77512C22.359 3.33217 21.9172 3.3788 21.4987 3.58862L22.1264 4.77759Z" fill="#15293D"/>
<path fill-rule="evenodd" clip-rule="evenodd" d="M24.9864 16.0378C24.9399 16.8538 24.1261 16.4808 23.754 16.2243C23.4053 15.9679 23.289 16.1777 23.2658 15.6881C23.2425 15.3618 23.2193 15.0587 23.2193 14.7323C23.754 14.6857 24.3353 14.8022 24.7771 15.1286C25.0096 15.3151 25.4281 15.828 24.9864 16.0378Z" fill="#C9B8BC"/>
<path d="M24.5679 16.6206C24.2191 16.6206 23.8238 16.3642 23.7076 16.2943C23.5913 16.2243 23.5216 16.1777 23.4518 16.1544C23.2658 16.0844 23.2193 16.0378 23.196 15.6881C23.196 15.6182 23.196 15.5482 23.1728 15.4783C23.1495 15.2452 23.1263 14.9887 23.1495 14.7323V14.6623H23.4518C23.9633 14.6623 24.4516 14.8022 24.8236 15.082C24.9864 15.1985 25.2886 15.5249 25.2654 15.8047C25.2654 15.8979 25.2189 16.0145 25.0794 16.0844C25.0329 16.5507 24.7306 16.6206 24.5679 16.6206ZM23.289 14.8255C23.289 15.0353 23.289 15.2685 23.3123 15.4783C23.3123 15.5482 23.3123 15.6182 23.3355 15.6881C23.3588 15.9679 23.3821 15.9679 23.4983 16.0145C23.5681 16.0378 23.6611 16.0844 23.8006 16.1544C24.0098 16.2943 24.3353 16.4575 24.5679 16.4575C24.7074 16.4575 24.8934 16.4108 24.9166 16.0378V15.9912L24.9631 15.9679C25.0561 15.9213 25.1026 15.8746 25.1026 15.7814C25.1259 15.5949 24.8934 15.3151 24.7306 15.1985C24.3819 14.9421 23.9168 14.8022 23.4518 14.8022C23.4053 14.8255 23.3588 14.8255 23.289 14.8255Z" fill="#15293D"/>
<path fill-rule="evenodd" clip-rule="evenodd" d="M24.9864 16.0379C24.8701 15.9912 24.7306 15.9679 24.6609 15.8513L24.9864 16.0379Z" fill="#C6B198"/>
<path d="M24.9863 16.1311H24.963L24.9165 16.1078C24.8003 16.0612 24.684 16.0378 24.6143 15.9213C24.591 15.898 24.591 15.828 24.6375 15.8047C24.6608 15.7814 24.7305 15.7814 24.7538 15.828C24.8003 15.898 24.8933 15.9213 24.9863 15.9679C25.0095 15.9679 25.0328 15.9912 25.0328 15.9912C25.0793 16.0145 25.1026 16.0612 25.0793 16.0845C25.0561 16.1078 25.0095 16.1311 24.9863 16.1311Z" fill="#15293D"/>
<path fill-rule="evenodd" clip-rule="evenodd" d="M14.6861 1.07082C17.8482 1.07082 20.8011 1.51377 22.3589 4.56779C23.754 7.97152 23.2425 11.655 23.475 15.2685C23.661 18.3692 24.0563 21.9361 22.638 24.8036C21.1266 27.811 17.3599 28.5804 14.2675 28.4638C11.8262 28.3705 8.89652 27.5779 7.50145 25.3398C5.89711 22.7288 6.64115 18.8355 6.75741 15.9213C6.89691 12.471 5.82736 8.9973 6.96667 5.6402C8.10598 2.11991 11.2681 1.32726 14.6861 1.07082Z" fill="#79D4FD"/>
<path d="M14.8024 28.557H14.2211C13.2678 28.5337 11.8262 28.3705 10.4079 27.7877C9.03606 27.2282 8.03626 26.4355 7.38523 25.3864C6.08316 23.2649 6.31567 20.3508 6.52493 17.763C6.57144 17.1102 6.61794 16.5041 6.64119 15.9213C6.68769 14.709 6.59469 13.4501 6.47843 12.2611C6.29242 10.0697 6.10641 7.80829 6.8272 5.61685C7.38523 3.98493 8.38503 2.81927 9.89635 2.07325C11.0822 1.49042 12.547 1.16403 14.6396 1.00084C17.7552 0.97753 20.8477 1.42048 22.4055 4.52113C23.4285 7.01564 23.4285 9.69666 23.4518 12.2844C23.4518 13.2636 23.4518 14.266 23.5215 15.2452C23.5448 15.5483 23.568 15.8513 23.568 16.1544C23.7541 18.9986 23.9633 22.2158 22.6612 24.8269C22.0102 26.1558 20.8709 27.1349 19.3131 27.7644C18.0575 28.2773 16.4764 28.557 14.8024 28.557ZM14.6861 1.14072C11.4077 1.39717 8.19902 2.11988 7.01321 5.66348C6.29242 7.8316 6.47843 10.0697 6.66444 12.2378C6.75745 13.4501 6.8737 14.6857 6.8272 15.9213C6.80395 16.5041 6.75745 17.1102 6.71094 17.763C6.50168 20.3275 6.26917 23.2183 7.54799 25.2932C8.08276 26.1558 9.80335 28.2073 14.2443 28.3705H14.8256C19.9641 28.3705 21.8707 26.0858 22.5682 24.7337C23.8471 22.1692 23.6378 18.952 23.475 16.1311C23.4518 15.828 23.4285 15.525 23.4285 15.2219C23.382 14.2427 23.3588 13.2403 23.3588 12.2611C23.3355 9.69666 23.3355 7.01564 22.3357 4.54445C21.6382 3.16897 20.5919 2.23644 19.1503 1.70024C17.6622 1.21066 15.9882 1.14072 14.6861 1.14072Z" fill="#15293D"/>
<path fill-rule="evenodd" clip-rule="evenodd" d="M15.2441 5.31379C15.8021 8.62426 21.1964 7.73836 20.4291 4.40458C19.7316 1.42049 15.0581 2.25977 15.2441 5.31379Z" fill="#F9FAFA"/>
<path d="M17.8017 7.48194C16.7554 7.48194 15.4301 6.92242 15.1511 5.33713C15.1046 4.59111 15.3371 3.91502 15.8254 3.40213C16.3602 2.8193 17.1739 2.49292 18.011 2.49292C18.9875 2.49292 20.1501 3.00581 20.4756 4.42791C20.6616 5.22056 20.5221 5.91996 20.0803 6.47947C19.5921 7.08562 18.7318 7.48194 17.8017 7.48194ZM15.3139 5.31381C15.4301 5.96658 15.7324 6.47947 16.2207 6.85248C16.6392 7.17887 17.2205 7.34206 17.8017 7.34206C18.662 7.34206 19.4991 6.96905 19.9641 6.38622C20.3826 5.87333 20.4989 5.19725 20.3361 4.45123C20.0338 3.12238 18.941 2.65611 18.011 2.65611C17.2205 2.65611 16.4532 2.9825 15.9416 3.5187C15.4999 3.98496 15.2674 4.61442 15.3139 5.31381Z" fill="#132433"/>
<path fill-rule="evenodd" clip-rule="evenodd" d="M8.80355 5.84999C9.54759 8.71751 14.1281 7.9948 13.9653 5.10397C13.756 1.65362 8.08276 2.30639 8.80355 5.84999Z" fill="#F9FAFA"/>
<path d="M11.2449 7.76174C10.2451 7.76174 9.08256 7.27216 8.71054 5.87337C8.54778 5.05741 8.71054 4.31139 9.17556 3.75187C9.68709 3.12242 10.5241 2.7494 11.4309 2.7494C12.64 2.7494 13.9188 3.47211 14.0118 5.10404C14.0583 5.78012 13.849 6.38626 13.384 6.87584C12.8957 7.41204 12.082 7.76174 11.2449 7.76174ZM11.4309 2.9126C10.5706 2.9126 9.78009 3.26229 9.29182 3.84512C8.85005 4.38133 8.71054 5.05741 8.8733 5.82674C9.19881 7.13228 10.3149 7.59855 11.2449 7.59855C12.0355 7.59855 12.8027 7.29547 13.291 6.75927C13.7095 6.31632 13.9188 5.73349 13.8723 5.10404C13.8258 4.10157 13.1515 2.9126 11.4309 2.9126Z" fill="#132433"/>
<path fill-rule="evenodd" clip-rule="evenodd" d="M15.8952 9.27702C15.8952 9.69666 15.9882 10.1862 15.9184 10.6525C15.8022 10.8623 15.5929 10.8856 15.4069 10.9556C15.1511 10.9089 14.9419 10.7458 14.8256 10.5126C14.7559 9.99973 14.8489 9.48684 14.8721 8.97395L15.8952 9.27702Z" fill="white"/>
<path d="M15.4068 11.0489C15.1046 11.0022 14.8721 10.8157 14.7558 10.5593C14.7093 10.1863 14.7326 9.83658 14.7558 9.48688C14.7791 9.32369 14.7791 9.1605 14.7791 8.99731V8.90405L15.9649 9.27706V9.32369C15.9649 9.46357 15.9881 9.60345 15.9881 9.76664C16.0114 10.0697 16.0346 10.3961 15.9881 10.6992V10.7225C15.8951 10.909 15.7324 10.9556 15.5696 11.0256C15.5231 11.0022 15.4766 11.0256 15.4068 11.0489ZM14.8953 10.4893C14.9883 10.6992 15.1743 10.839 15.3836 10.8857C15.4301 10.8624 15.4766 10.8624 15.4998 10.839C15.6394 10.7924 15.7556 10.7458 15.8254 10.6292C15.8719 10.3495 15.8486 10.0464 15.8254 9.74333C15.8254 9.60345 15.8021 9.46357 15.8021 9.347L14.9186 9.06725C14.9186 9.20712 14.8953 9.347 14.8953 9.46357C14.8721 9.83658 14.8488 10.163 14.8953 10.4893Z" fill="#132433"/>
<path fill-rule="evenodd" clip-rule="evenodd" d="M10.8497 5.38372C10.8497 5.84999 10.5009 6.223 10.0824 6.223C9.66388 6.223 9.31511 5.84999 9.31511 5.38372C9.31511 4.91746 9.66388 4.54445 10.0824 4.54445C10.5009 4.54445 10.8497 4.91746 10.8497 5.38372Z" fill="#0E0C16"/>
<path fill-rule="evenodd" clip-rule="evenodd" d="M10.5939 5.57022C10.5939 5.68678 10.5009 5.78003 10.4079 5.78003C10.3149 5.78003 10.2219 5.68678 10.2219 5.57022C10.2219 5.45365 10.3149 5.3604 10.4079 5.3604C10.5241 5.3604 10.5939 5.45365 10.5939 5.57022Z" fill="white"/>
<path fill-rule="evenodd" clip-rule="evenodd" d="M17.3367 5.17393C17.3367 5.64019 16.988 6.0132 16.5695 6.0132C16.1509 6.0132 15.8022 5.64019 15.8022 5.17393C15.8022 4.70767 16.1509 4.33466 16.5695 4.33466C16.988 4.33466 17.3367 4.70767 17.3367 5.17393Z" fill="#0E0C16"/>
<path fill-rule="evenodd" clip-rule="evenodd" d="M17.1043 5.36042C17.1043 5.47699 17.0345 5.57024 16.9182 5.57024C16.8252 5.57024 16.7322 5.47699 16.7322 5.36042C16.7322 5.24386 16.802 5.1506 16.9182 5.1506C17.0112 5.1506 17.1043 5.24386 17.1043 5.36042ZM13.6631 9.23041C13.3143 10.0464 13.8491 11.7016 14.7791 10.4893C14.7094 9.97643 14.8024 9.46354 14.8256 8.95065L13.6631 9.23041Z" fill="white"/>
<path d="M14.1513 11.0022C13.9885 11.0022 13.8258 10.9089 13.7095 10.7224C13.4537 10.3494 13.4072 9.65002 13.5933 9.20707L13.6165 9.16045L14.8953 8.83406V8.92731L14.8721 9.4402C14.8488 9.7899 14.8256 10.1163 14.8721 10.466V10.4893L14.8488 10.5126C14.6163 10.839 14.3838 11.0022 14.1513 11.0022ZM13.7328 9.30032C13.5933 9.69665 13.6398 10.3261 13.849 10.6292C13.942 10.7691 14.035 10.839 14.1513 10.839C14.314 10.839 14.5 10.6991 14.6861 10.466C14.6396 10.1163 14.6628 9.76659 14.7093 9.4402L14.7326 9.04388L13.7328 9.30032Z" fill="#132433"/>
<path fill-rule="evenodd" clip-rule="evenodd" d="M13.7793 7.64507C13.1515 7.6917 12.64 8.46103 12.9655 9.04386C13.4072 9.83651 14.3605 8.97392 14.9651 9.04386C15.6626 9.06718 16.2206 9.78988 16.7787 9.18374C17.4064 8.50766 16.4996 7.85489 15.8254 7.55182L13.7793 7.64507Z" fill="#C9B8BC"/>
<path d="M16.2905 9.51018C16.0812 9.51018 15.8719 9.41693 15.6627 9.32368C15.4534 9.23042 15.2209 9.13717 14.9651 9.13717H14.8954C14.7094 9.13717 14.5001 9.20711 14.2676 9.30036C14.0118 9.39361 13.7561 9.46355 13.5236 9.46355C13.2446 9.46355 13.0353 9.34699 12.8958 9.09054C12.733 8.81079 12.7563 8.4844 12.919 8.18133C13.1051 7.83163 13.4306 7.62181 13.7793 7.57519L15.8487 7.48193H15.8719C16.3835 7.69175 16.9647 8.08808 17.081 8.55434C17.1275 8.78747 17.0578 9.0206 16.8717 9.23042C16.6857 9.44024 16.4997 9.51018 16.2905 9.51018ZM14.9884 8.99729C15.2442 8.99729 15.4999 9.11386 15.7324 9.20711C15.9417 9.30036 16.1277 9.3703 16.3137 9.3703C16.4765 9.3703 16.616 9.30036 16.7555 9.16048C16.9182 8.99729 16.9647 8.81079 16.9415 8.62428C16.8485 8.22796 16.2905 7.85494 15.8487 7.66844L13.8258 7.76169C13.5236 7.78501 13.2446 7.99482 13.0818 8.27458C12.9423 8.53103 12.9423 8.81078 13.0586 9.04392C13.1748 9.25374 13.3143 9.34699 13.5468 9.34699C13.7561 9.34699 13.9886 9.25373 14.2211 9.1838C14.4769 9.09054 14.6861 9.0206 14.9186 9.0206C14.9186 8.97398 14.9419 8.97398 14.9884 8.99729Z" fill="#132433"/>
<path fill-rule="evenodd" clip-rule="evenodd" d="M13.7095 7.62177C13.663 6.52605 15.7556 6.38617 15.9881 7.29538C16.2439 8.22791 13.8025 8.43773 13.7095 7.62177Z" fill="#132433"/>
</svg>
