<svg width="30" height="30" viewBox="0 0 30 30" fill="none" xmlns="http://www.w3.org/2000/svg">
<path fill-rule="evenodd" clip-rule="evenodd" d="M4.99704 16.1544C5.04354 16.9704 5.85733 16.5974 6.22935 16.3409C6.57812 16.0845 6.69437 16.2943 6.71762 15.8047C6.74087 15.4783 6.76412 15.1752 6.76412 14.8489C6.22935 14.8022 5.64807 14.9188 5.2063 15.2452C4.99704 15.4084 4.55526 15.9446 4.99704 16.1544" fill="#C9B8BC"/>
<path d="M5.4388 16.7372C5.27604 16.7372 4.97378 16.6673 4.92727 16.201C4.78777 16.1078 4.74127 15.9912 4.74127 15.9213C4.71801 15.6415 5.02028 15.3151 5.18304 15.1986C5.55506 14.9188 6.04333 14.7789 6.55486 14.7789H6.85712V14.8489C6.88037 15.1053 6.85712 15.3617 6.83387 15.5949C6.83387 15.6648 6.83387 15.7348 6.81062 15.8047C6.78737 16.1544 6.71762 16.201 6.55486 16.271C6.4851 16.2943 6.41535 16.3176 6.29909 16.4108C6.18284 16.4808 5.78757 16.7372 5.4388 16.7372V16.7372ZM6.55486 14.9188C6.06658 14.9188 5.62481 15.0587 5.27604 15.3151C5.11328 15.4317 4.88077 15.7114 4.90402 15.8979C4.90402 15.9679 4.95053 16.0378 5.04353 16.0845L5.09003 16.1078V16.1544C5.11328 16.5274 5.29929 16.574 5.4388 16.574C5.67131 16.574 5.99683 16.4108 6.20609 16.271C6.3456 16.1777 6.4386 16.1544 6.50835 16.1311C6.62461 16.0845 6.64786 16.0845 6.67111 15.8047C6.67111 15.7348 6.67111 15.6648 6.69436 15.5949C6.71762 15.3851 6.71762 15.1519 6.71762 14.9421C6.64786 14.9188 6.60136 14.9188 6.55486 14.9188V14.9188Z" fill="#15293D"/>
<path fill-rule="evenodd" clip-rule="evenodd" d="M4.99703 16.1544C5.11329 16.1078 5.25279 16.0845 5.32255 15.9679Z" fill="#C6B198"/>
<path d="M4.997 16.2244C4.97375 16.2244 4.92725 16.2011 4.92725 16.1778C4.904 16.1311 4.92725 16.0845 4.97375 16.0845C4.997 16.0845 5.02026 16.0612 5.02026 16.0612C5.11326 16.0146 5.20626 15.9912 5.25277 15.9213C5.27602 15.898 5.32252 15.8747 5.36902 15.898C5.39227 15.9213 5.41553 15.9679 5.39227 16.0146C5.29927 16.1311 5.18301 16.1778 5.09001 16.2011L5.04351 16.2244H4.997Z" fill="#15293D"/>
<path fill-rule="evenodd" clip-rule="evenodd" d="M6.90356 6.293C3.7414 5.4071 6.08977 1.37392 8.62415 3.02915L6.90356 6.293V6.293Z" fill="#79D4FD"/>
<path d="M6.95015 6.38618L6.88039 6.36287C5.25281 5.89661 5.27606 4.73095 5.32256 4.38125C5.43882 3.49535 6.27586 2.56282 7.39192 2.56282C7.83369 2.56282 8.25221 2.7027 8.67073 2.98246L8.74049 3.02908L6.95015 6.38618V6.38618ZM7.39192 2.72601C6.34562 2.72601 5.57833 3.5886 5.46207 4.40456C5.34582 5.24384 5.85734 5.89661 6.85714 6.19968L8.50798 3.0524C8.15921 2.84258 7.78719 2.72601 7.39192 2.72601V2.72601Z" fill="#15293D"/>
<path fill-rule="evenodd" clip-rule="evenodd" d="M20.9241 2.72604C23.412 0.977553 25.6906 4.94079 22.7842 5.94326L20.9241 2.72604V2.72604Z" fill="#79D4FD"/>
<path d="M22.7609 6.03646L20.8311 2.70268L20.9009 2.65605C21.3426 2.35298 21.7844 2.18979 22.2262 2.18979C23.2957 2.18979 24.063 3.07569 24.2258 3.93828C24.2955 4.28797 24.3653 5.47695 22.8307 5.98984L22.7609 6.03646ZM21.0404 2.77262L22.8307 5.87327C23.7375 5.54689 24.2025 4.84749 24.063 4.00822C23.9235 3.21557 23.2027 2.39961 22.2262 2.39961C21.8309 2.37629 21.4356 2.49286 21.0404 2.77262Z" fill="#15293D"/>
<path fill-rule="evenodd" clip-rule="evenodd" d="M21.4821 26.3189C22.1099 26.7153 23.2724 27.9042 22.3191 28.4871C21.4123 29.3263 20.9008 27.5545 20.087 27.3214C20.4358 26.8551 20.8776 26.4122 21.4821 26.3189Z" fill="#C9B8BC"/>
<path d="M21.8308 28.7902C21.4588 28.7902 21.1333 28.4172 20.8543 28.0675C20.5985 27.7877 20.3428 27.4846 20.0638 27.3914L19.9475 27.3681L20.0172 27.2748C20.2963 26.8785 20.7613 26.3656 21.4588 26.249H21.4821L21.5053 26.2724C21.9006 26.5288 22.7609 27.2515 22.7376 27.9276C22.7376 28.184 22.5981 28.3939 22.3424 28.557C22.1796 28.7202 22.0168 28.7902 21.8308 28.7902V28.7902ZM20.2033 27.2748C20.4823 27.3914 20.7148 27.6945 20.9473 27.9509C21.2263 28.3006 21.5053 28.6037 21.8076 28.6037C21.9471 28.6037 22.0866 28.5337 22.2261 28.3939H22.2494C22.4586 28.254 22.5749 28.0908 22.5749 27.881C22.5749 27.3448 21.9006 26.6687 21.4356 26.3656C21.017 26.4822 20.5985 26.7619 20.2033 27.2748ZM22.3191 28.557C22.2959 28.557 22.2726 28.5337 22.2494 28.5104C22.2029 28.4172 22.1564 28.3006 22.1331 28.2073C22.0634 28.0208 21.9936 27.8343 21.8541 27.6945C21.8308 27.6711 21.8308 27.6245 21.8541 27.5779C21.8773 27.5546 21.9238 27.5546 21.9703 27.5779C22.1331 27.7411 22.2261 27.9509 22.2959 28.1607L22.4121 28.4405C22.4354 28.4871 22.4121 28.5337 22.3889 28.557H22.3191V28.557Z" fill="#15293D"/>
<path fill-rule="evenodd" clip-rule="evenodd" d="M10.1356 27.6712C9.39153 27.7877 8.97301 28.4638 8.34522 28.8135C7.76394 29.1632 7.53143 28.6969 7.48493 28.6037C7.39193 28.5571 7.39193 28.6503 7.25242 28.5104C6.71764 27.6479 7.81045 27.0184 8.39173 26.5988C9.20552 26.4123 9.71704 27.1117 10.1356 27.6712" fill="#C9B8BC"/>
<path d="M7.94996 29C7.6477 29 7.48494 28.7436 7.43844 28.6503H7.41519C7.34543 28.6503 7.29893 28.627 7.20593 28.5337V28.5104C6.6944 27.6945 7.57794 27.065 8.15922 26.6454L8.36848 26.5055H8.41499C8.50799 26.4822 8.57774 26.4822 8.67075 26.4822C9.36828 26.4822 9.81006 27.0883 10.1821 27.5779L10.2983 27.7411L10.1588 27.7644C9.71705 27.8343 9.39154 28.1141 9.06602 28.3939C8.85676 28.5804 8.6475 28.7436 8.41499 28.8834C8.22898 28.9534 8.08947 29 7.94996 29V29ZM7.43844 28.5104C7.46169 28.5104 7.48494 28.5104 7.53144 28.5337H7.55469L7.57794 28.5571C7.62445 28.627 7.7407 28.8368 7.97321 28.8368C8.08947 28.8368 8.20573 28.7902 8.32198 28.7202C8.55449 28.6037 8.76375 28.4172 8.94976 28.254C9.25203 27.9975 9.57754 27.7178 9.99607 27.6012C9.6473 27.1349 9.22878 26.6221 8.6475 26.6221C8.57774 26.6221 8.50799 26.6221 8.43824 26.6454L8.25223 26.7852C7.6477 27.2049 6.90366 27.7411 7.34543 28.4405C7.36868 28.4871 7.39194 28.5104 7.43844 28.5104V28.5104ZM7.48494 28.6736C7.43844 28.6736 7.39193 28.627 7.41519 28.5804C7.43844 28.3472 7.55469 28.184 7.67095 27.9975C7.7407 27.9043 7.7872 27.811 7.83371 27.7178C7.85696 27.6712 7.90346 27.6711 7.92671 27.6711C7.97321 27.6945 7.97321 27.7411 7.97321 27.7644C7.92671 27.881 7.85696 27.9742 7.7872 28.0675C7.67095 28.2307 7.57794 28.3705 7.55469 28.5571C7.55469 28.6503 7.53144 28.6736 7.48494 28.6736V28.6736Z" fill="#15293D"/>
<path fill-rule="evenodd" clip-rule="evenodd" d="M7.0431 5.19723C6.62458 4.98741 6.32231 4.68434 6.57807 4.19476C6.81059 3.75181 7.25236 3.79844 7.67088 4.00825L7.0431 5.19723V5.19723ZM22.1331 4.77759C22.5516 4.56777 22.8539 4.2647 22.5981 3.77512C22.3656 3.33217 21.9238 3.3788 21.5053 3.58862L22.1331 4.77759Z" fill="#15293D"/>
<path fill-rule="evenodd" clip-rule="evenodd" d="M24.993 16.0378C24.9465 16.8538 24.1327 16.4808 23.7607 16.2243C23.4119 15.9679 23.2957 16.1777 23.2724 15.6881C23.2492 15.3618 23.2259 15.0587 23.2259 14.7323C23.7607 14.6857 24.342 14.8022 24.7838 15.1286C25.0163 15.3151 25.4348 15.828 24.993 16.0378" fill="#C9B8BC"/>
<path d="M24.5745 16.6206C24.2258 16.6206 23.8305 16.3642 23.7142 16.2943C23.598 16.2243 23.5282 16.1777 23.4585 16.1544C23.2725 16.0844 23.226 16.0378 23.2027 15.6881C23.2027 15.6182 23.2027 15.5482 23.1795 15.4783C23.1562 15.2452 23.133 14.9887 23.1562 14.7323V14.6623H23.4585C23.97 14.6623 24.4583 14.8022 24.8303 15.082C24.9931 15.1985 25.2953 15.5249 25.2721 15.8047C25.2721 15.8979 25.2256 16.0145 25.0861 16.0844C25.0396 16.5507 24.7373 16.6206 24.5745 16.6206V16.6206ZM23.2957 14.8255C23.2957 15.0353 23.2957 15.2685 23.319 15.4783C23.319 15.5482 23.319 15.6182 23.3422 15.6881C23.3655 15.9679 23.3887 15.9679 23.505 16.0145C23.5747 16.0378 23.6677 16.0844 23.8072 16.1544C24.0165 16.2943 24.342 16.4575 24.5745 16.4575C24.714 16.4575 24.9 16.4108 24.9233 16.0378V15.9912L24.9698 15.9679C25.0628 15.9213 25.1093 15.8746 25.1093 15.7814C25.1326 15.5949 24.9 15.3151 24.7373 15.1985C24.3885 14.9421 23.9235 14.8022 23.4585 14.8022C23.412 14.8255 23.3655 14.8255 23.2957 14.8255V14.8255Z" fill="#15293D"/>
<path fill-rule="evenodd" clip-rule="evenodd" d="M24.9931 16.0379C24.8768 15.9912 24.7373 15.9679 24.6675 15.8513Z" fill="#C6B198"/>
<path d="M24.993 16.1311H24.9697L24.9232 16.1078C24.8069 16.0612 24.6907 16.0378 24.6209 15.9213C24.5977 15.898 24.5977 15.828 24.6442 15.8047C24.6674 15.7814 24.7372 15.7814 24.7604 15.828C24.8069 15.898 24.9 15.9213 24.993 15.9679C25.0162 15.9679 25.0395 15.9912 25.0395 15.9912C25.086 16.0145 25.1092 16.0612 25.086 16.0845C25.0627 16.1078 25.0162 16.1311 24.993 16.1311Z" fill="#15293D"/>
<path fill-rule="evenodd" clip-rule="evenodd" d="M14.6927 1.07082C17.8549 1.07082 20.8078 1.51377 22.3656 4.56779C23.7607 7.97152 23.2492 11.655 23.4817 15.2685C23.6677 18.3692 24.0629 21.9361 22.6446 24.8036C21.1333 27.811 17.3666 28.5804 14.2742 28.4638C11.8328 28.3705 8.90318 27.5779 7.50811 25.3398C5.90378 22.7288 6.64782 18.8355 6.76407 15.9213C6.90358 12.471 5.83403 8.9973 6.97333 5.6402C8.11264 2.11991 11.2748 1.32726 14.6927 1.07082Z" fill="#79D4FD"/>
<path d="M14.809 28.557H14.2277C13.2744 28.5337 11.8329 28.3705 10.4145 27.7877C9.04272 27.2282 8.04292 26.4355 7.39189 25.3864C6.08983 23.2649 6.32234 20.3508 6.5316 17.763C6.5781 17.1102 6.6246 16.5041 6.64785 15.9213C6.69436 14.709 6.60135 13.4501 6.4851 12.2611C6.29909 10.0697 6.11308 7.80829 6.83386 5.61685C7.39189 3.98493 8.39169 2.81927 9.90302 2.07325C11.0888 1.49042 12.5537 1.16403 14.6463 1.00084C17.7619 0.97753 20.8543 1.42048 22.4121 4.52113C23.4352 7.01564 23.4352 9.69666 23.4584 12.2844C23.4584 13.2636 23.4585 14.266 23.5282 15.2452C23.5515 15.5483 23.5747 15.8513 23.5747 16.1544C23.7607 18.9986 23.97 22.2158 22.6679 24.8269C22.0169 26.1558 20.8776 27.1349 19.3197 27.7644C18.0642 28.2773 16.4831 28.557 14.809 28.557V28.557ZM14.6928 1.14072C11.4143 1.39717 8.20568 2.11988 7.01987 5.66348C6.29909 7.8316 6.4851 10.0697 6.67111 12.2378C6.76411 13.4501 6.88037 14.6857 6.83386 15.9213C6.81061 16.5041 6.76411 17.1102 6.71761 17.763C6.50835 20.3275 6.27583 23.2183 7.55465 25.2932C8.08943 26.1558 9.81001 28.2073 14.251 28.3705H14.8323C19.9708 28.3705 21.8774 26.0858 22.5749 24.7337C23.8537 22.1692 23.6445 18.952 23.4817 16.1311C23.4584 15.828 23.4352 15.525 23.4352 15.2219C23.3887 14.2427 23.3654 13.2403 23.3654 12.2611C23.3422 9.69666 23.3422 7.01564 22.3424 4.54445C21.6449 3.16897 20.5986 2.23644 19.157 1.70024C17.6689 1.21066 15.9948 1.14072 14.6928 1.14072V1.14072Z" fill="#15293D"/>
<path fill-rule="evenodd" clip-rule="evenodd" d="M15.2508 5.31379C15.8088 8.62426 21.2031 7.73836 20.4358 4.40458C19.7383 1.42049 15.0648 2.25977 15.2508 5.31379Z" fill="#F9FAFA"/>
<path d="M17.8084 7.48194C16.7621 7.48194 15.4368 6.92242 15.1578 5.33713C15.1113 4.59111 15.3438 3.91502 15.832 3.40213C16.3668 2.8193 17.1806 2.49292 18.0177 2.49292C18.9942 2.49292 20.1568 3.00581 20.4823 4.42791C20.6683 5.22056 20.5288 5.91996 20.087 6.47947C19.5987 7.08562 18.7384 7.48194 17.8084 7.48194ZM15.3205 5.31381C15.4368 5.96658 15.739 6.47947 16.2273 6.85248C16.6458 7.17887 17.2271 7.34206 17.8084 7.34206C18.6687 7.34206 19.5057 6.96905 19.9707 6.38622C20.3893 5.87333 20.5055 5.19725 20.3428 4.45123C20.0405 3.12238 18.9477 2.65611 18.0177 2.65611C17.2271 2.65611 16.4598 2.9825 15.9483 3.5187C15.5065 3.98496 15.274 4.61442 15.3205 5.31381V5.31381Z" fill="#132433"/>
<path fill-rule="evenodd" clip-rule="evenodd" d="M8.81021 5.84999C9.55425 8.71751 14.1347 7.9948 13.972 5.10397C13.7627 1.65362 8.08943 2.30639 8.81021 5.84999Z" fill="#F9FAFA"/>
<path d="M11.2516 7.76174C10.2518 7.76174 9.08922 7.27216 8.7172 5.87337C8.55444 5.05741 8.7172 4.31139 9.18223 3.75187C9.69375 3.12242 10.5308 2.7494 11.4376 2.7494C12.6467 2.7494 13.9255 3.47211 14.0185 5.10404C14.065 5.78012 13.8557 6.38626 13.3907 6.87584C12.9024 7.41204 12.0886 7.76174 11.2516 7.76174ZM11.4376 2.9126C10.5773 2.9126 9.78676 3.26229 9.29848 3.84512C8.85671 4.38133 8.7172 5.05741 8.87996 5.82674C9.20548 7.13228 10.3215 7.59855 11.2516 7.59855C12.0421 7.59855 12.8094 7.29547 13.2977 6.75927C13.7162 6.31632 13.9255 5.73349 13.879 5.10404C13.8325 4.10157 13.1582 2.9126 11.4376 2.9126V2.9126Z" fill="#132433"/>
<path fill-rule="evenodd" clip-rule="evenodd" d="M15.9018 9.27702C15.9018 9.69666 15.9949 10.1862 15.9251 10.6525C15.8088 10.8623 15.5996 10.8856 15.4136 10.9556C15.1578 10.9089 14.9485 10.7458 14.8323 10.5126C14.7625 9.99973 14.8555 9.48684 14.8788 8.97395L15.9018 9.27702V9.27702Z" fill="white"/>
<path d="M15.4135 11.0489C15.1112 11.0022 14.8787 10.8157 14.7625 10.5593C14.716 10.1863 14.7392 9.83658 14.7625 9.48688C14.7857 9.32369 14.7857 9.1605 14.7857 8.99731V8.90405L15.9715 9.27706V9.32369C15.9715 9.46357 15.9948 9.60345 15.9948 9.76664C16.018 10.0697 16.0413 10.3961 15.9948 10.6992V10.7225C15.9018 10.909 15.739 10.9556 15.5763 11.0256C15.5298 11.0022 15.4833 11.0256 15.4135 11.0489ZM14.902 10.4893C14.995 10.6992 15.181 10.839 15.3902 10.8857C15.4368 10.8624 15.4833 10.8624 15.5065 10.839C15.646 10.7924 15.7623 10.7458 15.832 10.6292C15.8785 10.3495 15.8553 10.0464 15.832 9.74333C15.832 9.60345 15.8088 9.46357 15.8088 9.347L14.9252 9.06725C14.9252 9.20712 14.902 9.347 14.902 9.46357C14.8787 9.83658 14.8555 10.163 14.902 10.4893V10.4893Z" fill="#132433"/>
<path fill-rule="evenodd" clip-rule="evenodd" d="M10.8564 5.38372C10.8564 5.84999 10.5076 6.223 10.0891 6.223C9.67054 6.223 9.32177 5.84999 9.32177 5.38372C9.32177 4.91746 9.67054 4.54445 10.0891 4.54445C10.5076 4.54445 10.8564 4.91746 10.8564 5.38372Z" fill="#0E0C16"/>
<path fill-rule="evenodd" clip-rule="evenodd" d="M10.6006 5.57022C10.6006 5.68678 10.5076 5.78003 10.4146 5.78003C10.3216 5.78003 10.2285 5.68678 10.2285 5.57022C10.2285 5.45365 10.3216 5.3604 10.4146 5.3604C10.5308 5.3604 10.6006 5.45365 10.6006 5.57022Z" fill="white"/>
<path fill-rule="evenodd" clip-rule="evenodd" d="M17.3434 5.17393C17.3434 5.64019 16.9946 6.0132 16.5761 6.0132C16.1576 6.0132 15.8088 5.64019 15.8088 5.17393C15.8088 4.70767 16.1576 4.33466 16.5761 4.33466C16.9946 4.33466 17.3434 4.70767 17.3434 5.17393Z" fill="#0E0C16"/>
<path fill-rule="evenodd" clip-rule="evenodd" d="M17.1109 5.36042C17.1109 5.47699 17.0412 5.57024 16.9249 5.57024C16.8319 5.57024 16.7389 5.47699 16.7389 5.36042C16.7389 5.24386 16.8086 5.1506 16.9249 5.1506C17.0179 5.1506 17.1109 5.24386 17.1109 5.36042ZM13.6697 9.23041C13.321 10.0464 13.8557 11.7016 14.7858 10.4893C14.716 9.97643 14.809 9.46354 14.8323 8.95065L13.6697 9.23041Z" fill="white"/>
<path d="M14.1579 11.0022C13.9952 11.0022 13.8324 10.9089 13.7162 10.7224C13.4604 10.3494 13.4139 9.65002 13.5999 9.20707L13.6232 9.16045L14.902 8.83406V8.92731L14.8787 9.4402C14.8555 9.7899 14.8322 10.1163 14.8787 10.466V10.4893L14.8555 10.5126C14.623 10.839 14.3905 11.0022 14.1579 11.0022ZM13.7394 9.30032C13.5999 9.69665 13.6464 10.3261 13.8557 10.6292C13.9487 10.7691 14.0417 10.839 14.1579 10.839C14.3207 10.839 14.5067 10.6991 14.6927 10.466C14.6462 10.1163 14.6695 9.76659 14.716 9.4402L14.7392 9.04388L13.7394 9.30032Z" fill="#132433"/>
<path fill-rule="evenodd" clip-rule="evenodd" d="M13.7859 7.64507C13.1581 7.6917 12.6466 8.46103 12.9721 9.04386C13.4139 9.83651 14.3672 8.97392 14.9717 9.04386C15.6693 9.06718 16.2273 9.78988 16.7853 9.18374C17.4131 8.50766 16.5063 7.85489 15.832 7.55182L13.7859 7.64507V7.64507Z" fill="#C9B8BC"/>
<path d="M16.2971 9.51018C16.0879 9.51018 15.8786 9.41693 15.6694 9.32368C15.4601 9.23042 15.2276 9.13717 14.9718 9.13717H14.9021C14.7161 9.13717 14.5068 9.20711 14.2743 9.30036C14.0185 9.39361 13.7628 9.46355 13.5302 9.46355C13.2512 9.46355 13.042 9.34699 12.9025 9.09054C12.7397 8.81079 12.763 8.4844 12.9257 8.18133C13.1117 7.83163 13.4372 7.62181 13.786 7.57519L15.8554 7.48193H15.8786C16.3901 7.69175 16.9714 8.08808 17.0877 8.55434C17.1342 8.78747 17.0644 9.0206 16.8784 9.23042C16.6924 9.44024 16.5064 9.51018 16.2971 9.51018V9.51018ZM14.9951 8.99729C15.2508 8.99729 15.5066 9.11386 15.7391 9.20711C15.9484 9.30036 16.1344 9.3703 16.3204 9.3703C16.4831 9.3703 16.6226 9.30036 16.7622 9.16048C16.9249 8.99729 16.9714 8.81079 16.9482 8.62428C16.8552 8.22796 16.2971 7.85494 15.8554 7.66844L13.8325 7.76169C13.5302 7.78501 13.2512 7.99482 13.0885 8.27458C12.949 8.53103 12.949 8.81078 13.0652 9.04392C13.1815 9.25374 13.321 9.34699 13.5535 9.34699C13.7628 9.34699 13.9953 9.25373 14.2278 9.1838C14.4835 9.09054 14.6928 9.0206 14.9253 9.0206C14.9253 8.97398 14.9486 8.97398 14.9951 8.99729V8.99729Z" fill="#132433"/>
<path fill-rule="evenodd" clip-rule="evenodd" d="M13.7162 7.62177C13.6697 6.52605 15.7623 6.38617 15.9948 7.29538C16.2506 8.22791 13.8092 8.43773 13.7162 7.62177" fill="#132433"/>
</svg>
