<svg width="30" height="30" viewBox="0 0 30 30" fill="none" xmlns="http://www.w3.org/2000/svg">
<rect x="1" y="1" width="28" height="28" rx="1.5" fill="#FFCA28"/>
<path d="M16.6009 21.9351C16.6009 23.5539 16.2243 24.7932 15.4711 25.6532C14.7236 26.5132 13.6388 26.9431 12.2167 26.9431C11.5816 26.9431 10.9942 26.8335 10.4547 26.6143V24.0597C10.9212 24.4138 11.4439 24.5909 12.0228 24.5909C13.265 24.5909 13.8861 23.6691 13.8861 21.8255V14.6423H16.6009V21.9351Z" fill="black"/>
<path d="M18.6917 26.2687V23.5707C19.1807 23.9811 19.7119 24.2902 20.2852 24.4982C20.8585 24.7005 21.4374 24.8017 22.022 24.8017C22.3648 24.8017 22.6627 24.7708 22.9157 24.7089C23.1742 24.6471 23.3878 24.5628 23.5564 24.456C23.7307 24.3436 23.8599 24.2143 23.9442 24.0682C24.0286 23.9164 24.0707 23.7534 24.0707 23.5792C24.0707 23.3431 24.0033 23.1323 23.8684 22.9469C23.7335 22.7614 23.548 22.5899 23.3119 22.4326C23.0815 22.2752 22.8061 22.1234 22.4857 21.9773C22.1653 21.8312 21.8196 21.6822 21.4487 21.5304C20.5044 21.137 19.799 20.6564 19.3325 20.0888C18.8716 19.5211 18.6412 18.8353 18.6412 18.0316C18.6412 17.4021 18.7676 16.8625 19.0206 16.4128C19.2735 15.9576 19.6163 15.5838 20.0491 15.2915C20.4875 14.9992 20.9934 14.7857 21.5667 14.6508C22.14 14.5102 22.747 14.44 23.3878 14.44C24.0173 14.44 24.5738 14.4793 25.0571 14.558C25.5461 14.6311 25.9958 14.7463 26.4061 14.9037V17.4246C26.2038 17.284 25.9817 17.1604 25.74 17.0536C25.504 16.9468 25.2595 16.8597 25.0066 16.7922C24.7536 16.7192 24.5007 16.6658 24.2478 16.632C24.0005 16.5983 23.7644 16.5815 23.5396 16.5815C23.2304 16.5815 22.9494 16.6124 22.6965 16.6742C22.4435 16.7304 22.2299 16.8119 22.0557 16.9187C21.8815 17.0255 21.7466 17.1548 21.651 17.3065C21.5555 17.4527 21.5077 17.6185 21.5077 17.804C21.5077 18.0063 21.5611 18.189 21.6679 18.352C21.7747 18.5093 21.9264 18.6611 22.1232 18.8072C22.3199 18.9478 22.5588 19.0883 22.8398 19.2288C23.1208 19.3637 23.4384 19.5042 23.7925 19.6503C24.2759 19.8527 24.7087 20.0691 25.0909 20.2995C25.4787 20.5244 25.8103 20.7801 26.0857 21.0667C26.3611 21.3534 26.5719 21.6822 26.718 22.0532C26.8642 22.4185 26.9373 22.8457 26.9373 23.3347C26.9373 24.0092 26.808 24.5768 26.5494 25.0377C26.2965 25.493 25.9508 25.864 25.5124 26.1506C25.074 26.4317 24.5625 26.634 23.978 26.7577C23.399 26.8813 22.7864 26.9431 22.14 26.9431C21.4768 26.9431 20.8445 26.8869 20.243 26.7745C19.6473 26.6621 19.1302 26.4935 18.6917 26.2687Z" fill="black"/>
</svg>
