<svg width="30" height="30" viewBox="0 0 30 30" fill="none" xmlns="http://www.w3.org/2000/svg">
<path d="M17.4321 4.12081C16.2569 2.72653 15.245 1.31046 15.0382 1.01635C15.0165 0.994569 14.9838 0.994569 14.9621 1.01635C14.7553 1.31046 13.7434 2.72653 12.5682 4.12081C2.4815 16.9852 14.1569 25.6668 14.1569 25.6668L14.2548 25.7322C14.3418 27.0719 14.5595 29 14.5595 29H14.9947H15.4299C15.4299 29 15.6476 27.0828 15.7346 25.7322L15.8325 25.6559C15.8434 25.6668 27.5188 16.9852 17.4321 4.12081ZM14.9947 25.4707C14.9947 25.4707 14.4724 25.0241 14.331 24.7954V24.7735L14.9621 10.7654C14.9621 10.7219 15.0273 10.7219 15.0273 10.7654L15.6584 24.7735V24.7954C15.517 25.0241 14.9947 25.4707 14.9947 25.4707Z" fill="#00FE69"/>
</svg>
