<svg width="30" height="30" viewBox="0 0 30 30" fill="none" xmlns="http://www.w3.org/2000/svg">
<path d="M1.00021 21.1265H1.87815V17.2453L3.23738 20.6289C3.39766 21.0385 3.61715 21.1832 4.04778 21.1832C4.47842 21.1832 4.68957 21.0385 4.84985 20.6289L6.20908 17.2453V21.1265H7.08702V17.2518C7.08702 16.8738 6.95195 16.6908 6.67327 16.5965C6.00626 16.3635 5.55875 16.5652 5.35614 17.0692L4.02235 20.4086L2.73087 17.069C2.53661 16.5652 2.08075 16.3635 1.41375 16.5963C1.13507 16.6908 1 16.8735 1 17.2515L1.00021 21.1265ZM7.81728 17.9671H8.69501V20.1054C8.68689 20.2215 8.72835 20.4942 9.2092 20.5028C9.4545 20.5071 11.1031 20.5028 11.1185 20.5028V17.9566H11.9984C12.0025 17.9566 11.9975 21.4289 11.9975 21.4433C12.0022 22.2998 11.0484 22.4856 10.6086 22.5H7.8363V21.8387C7.841 21.8387 10.6067 21.8395 10.6135 21.8385C11.1788 21.7718 11.1119 21.4574 11.1117 21.3516V21.0937H9.2457C8.37764 21.0849 7.82455 20.6607 7.8175 20.1727C7.81707 20.1279 7.83652 17.9886 7.81728 17.9671Z" fill="#00618A"/>
<path d="M13 20.8524H15.6633C15.9751 20.8524 16.2781 20.7861 16.5185 20.6713C16.9192 20.484 17.1151 20.2301 17.1151 19.8973V19.2082C17.1151 18.9362 16.8925 18.6821 16.456 18.5131C16.2245 18.4222 15.9393 18.3743 15.663 18.3743H14.5406C14.1666 18.3743 13.9885 18.2595 13.9441 18.0056C13.9353 17.9753 13.9353 17.9512 13.9353 17.9209V17.4916C13.9353 17.4675 13.9353 17.4432 13.9441 17.4131C13.9885 17.2196 14.0865 17.1652 14.4162 17.1349L14.5053 17.129H17.1507V16.5005H14.5499C14.1758 16.5005 13.9799 16.5246 13.8018 16.579C13.2496 16.7543 13.0088 17.0323 13.0088 17.516V18.066C13.0088 18.4893 13.4812 18.8519 14.2737 18.9366C14.363 18.9424 14.4518 18.9488 14.5409 18.9488H15.503C15.5386 18.9488 15.5742 18.9488 15.601 18.9546C15.8951 18.9787 16.0195 19.0333 16.1088 19.1419C16.1317 19.1634 16.1498 19.1896 16.1621 19.2187C16.1743 19.2479 16.1804 19.2793 16.1798 19.311V19.8613C16.1798 19.9276 16.1354 20.0123 16.0464 20.0848C15.9663 20.1574 15.8326 20.2058 15.6545 20.218L15.5564 20.2239H13V20.8524ZM22.8939 19.7584C22.8939 20.4051 23.3661 20.7677 24.3189 20.8405C24.408 20.8465 24.497 20.8524 24.5861 20.8524H27V20.2239H24.5685C24.0251 20.2239 23.8204 20.0848 23.8204 19.7522V16.5H22.8942L22.8939 19.7584ZM17.7063 19.791V17.5495C17.7063 16.9802 18.099 16.6347 18.8756 16.5257C18.9583 16.5136 19.0418 16.5076 19.1254 16.5076H20.8838C20.9731 16.5076 21.0534 16.5135 21.1425 16.5257C21.919 16.6347 22.312 16.98 22.312 17.5495V19.791C22.312 20.2533 22.1451 20.5003 21.7607 20.6615L22.6734 21.5H21.5977L20.8595 20.8215L20.1163 20.8694H19.1254C18.9413 20.8682 18.7582 20.8418 18.5811 20.7907C17.9919 20.6273 17.7063 20.3121 17.7063 19.791ZM18.706 19.7366C18.706 19.7669 18.7148 19.7974 18.7238 19.8337C18.7773 20.0943 19.0185 20.2396 19.3842 20.2396H20.2257L19.4528 19.5291H20.5285L21.2024 20.1489C21.3269 20.0812 21.4085 19.9783 21.4372 19.8459C21.446 19.8156 21.446 19.7853 21.446 19.755V17.6046C21.446 17.5805 21.446 17.5499 21.4372 17.5196C21.3835 17.2772 21.1425 17.1381 20.7855 17.1381H19.384C18.9737 17.1381 18.7058 17.3199 18.7058 17.6046L18.706 19.7366Z" fill="#E48E00"/>
<path d="M28.2088 15.2394C27.6635 15.2242 27.2469 15.2759 26.8905 15.4289C26.7892 15.4725 26.6278 15.4736 26.6114 15.6028C26.6669 15.6625 26.6756 15.7512 26.7199 15.8243C26.805 15.9646 26.9486 16.1526 27.0767 16.251C27.2164 16.3587 27.3607 16.474 27.511 16.5674C27.7777 16.7334 28.0758 16.8281 28.333 16.9941C28.4844 17.0923 28.6348 17.2155 28.7827 17.3263C28.8559 17.3807 28.9048 17.4659 29 17.5V17.4844C28.9501 17.4196 28.9371 17.3307 28.8914 17.2629L28.6896 17.0573C28.4924 16.7904 28.2423 16.5564 27.976 16.3618C27.7639 16.2065 27.2892 15.9967 27.2006 15.7451L27.1851 15.7294C27.3354 15.7121 27.5117 15.6566 27.6503 15.6187C27.8836 15.5549 28.092 15.5714 28.3328 15.508L28.6585 15.4128V15.3499C28.5369 15.2226 28.4499 15.054 28.3173 14.9388C27.9702 14.6374 27.5909 14.3362 27.2006 14.0848C26.9842 13.9457 26.7166 13.8552 26.487 13.7372C26.4101 13.6973 26.2745 13.6769 26.2233 13.6106C26.1026 13.4541 26.0371 13.2557 25.944 13.0732C25.7452 12.6789 25.559 12.2781 25.3857 11.8715C25.2682 11.5974 25.1913 11.3271 25.0447 11.0811C24.3404 9.90083 23.5823 9.18842 22.4079 8.4883C22.1581 8.33924 21.8572 8.28068 21.5395 8.20384L21.0276 8.17214C20.9237 8.12789 20.8153 7.99799 20.7174 7.93502C20.3282 7.68448 19.3304 7.13957 19.0423 7.85621C18.8604 8.30842 19.3144 8.74963 19.4766 8.97882C19.5904 9.13954 19.7364 9.31963 19.8179 9.50043C19.8714 9.61923 19.8805 9.73843 19.9265 9.86413C20.039 10.1736 20.1373 10.5107 20.2831 10.7967C20.3567 10.9415 20.4382 11.0941 20.5313 11.2236C20.5883 11.3028 20.6863 11.3381 20.7017 11.4607C20.606 11.5972 20.6004 11.8094 20.5466 11.9823C20.3043 12.7614 20.3956 13.7299 20.7483 14.3065C20.8565 14.4838 21.1114 14.8633 21.4617 14.7176C21.7682 14.5903 21.7 14.196 21.7876 13.8479C21.8075 13.7693 21.7952 13.7112 21.8341 13.6584V13.6742L22.1133 14.2433C22.32 14.5826 22.6866 14.9369 22.9974 15.1762C23.1585 15.3001 23.2855 15.5148 23.4937 15.5872V15.5711H23.4784C23.4378 15.5071 23.3749 15.4807 23.3231 15.4289C23.2017 15.3076 23.0667 15.157 22.9665 15.0179C22.6838 14.6269 22.4341 14.1986 22.2064 13.753C22.0978 13.5404 22.0034 13.3057 21.9118 13.089C21.8764 13.0056 21.8768 12.8792 21.8034 12.8363C21.7028 12.9948 21.5552 13.1231 21.4775 13.3105C21.3535 13.6099 21.3375 13.9752 21.2915 14.3539L21.2604 14.3695C21.0442 14.3164 20.9684 14.0897 20.8881 13.8953C20.685 13.4036 20.6472 12.6117 20.8261 12.0457C20.8723 11.899 21.0812 11.4378 20.9965 11.3024C20.9561 11.1674 20.8228 11.0895 20.7485 10.986C20.6511 10.8476 20.5679 10.6992 20.5004 10.5433C20.3341 10.16 20.2565 9.72953 20.0818 9.34187C19.998 9.15649 19.8567 8.96913 19.7405 8.80445C19.612 8.62171 19.468 8.48742 19.3682 8.26681C19.3328 8.18843 19.2846 8.06272 19.3371 7.98214C19.3537 7.92776 19.3777 7.90508 19.4304 7.88725C19.5202 7.81658 19.7708 7.91081 19.8645 7.95044C20.1133 8.05589 20.3209 8.15607 20.5317 8.29829C20.6328 8.36677 20.7349 8.49886 20.8574 8.53541H20.9969C21.2153 8.58649 21.46 8.55104 21.6639 8.61423C22.0246 8.72607 22.3477 8.89978 22.641 9.08868C23.535 9.66423 24.2656 10.4832 24.7658 11.4603C24.8462 11.6177 24.8812 11.7676 24.9518 11.9345C25.0948 12.2709 25.2749 12.6172 25.417 12.9464C25.5589 13.2746 25.6974 13.606 25.898 13.8792C26.0034 14.0227 26.4108 14.0998 26.5959 14.1795C26.7257 14.2354 26.9382 14.2938 27.0611 14.3691C27.2959 14.5135 27.5235 14.6854 27.7436 14.8435C27.8536 14.9232 28.192 15.0965 28.2088 15.2394ZM21.276 9.21594C21.1819 9.21437 21.0881 9.22502 20.9967 9.24764V9.26327H21.0123C21.0665 9.3771 21.1622 9.45019 21.2293 9.54793L21.3846 9.87993L21.3999 9.86433C21.4961 9.79543 21.5399 9.68513 21.5395 9.51643C21.5008 9.47507 21.4952 9.42333 21.4619 9.37423C21.4179 9.30818 21.3319 9.2712 21.276 9.21594Z" fill="#00618A"/>
</svg>
