<svg width="30" height="30" viewBox="0 0 30 30" fill="none" xmlns="http://www.w3.org/2000/svg">
<path d="M15.6471 1.1804C15.2328 0.946056 14.741 0.946056 14.3268 1.1804L3.42864 7.50996C3.01448 7.74444 2.78149 8.18714 2.78149 8.6561V21.3411C2.78149 21.81 3.04033 22.2527 3.42864 22.4872L14.3268 28.8168C14.741 29.0511 15.2328 29.0511 15.6471 28.8168L26.5451 22.4872C26.9594 22.2527 27.1923 21.81 27.1923 21.3411V8.6561C27.1923 8.18714 26.9334 7.74444 26.5451 7.50996L15.6471 1.1804Z" fill="url(#paint0_linear_68_267)"/>
<path d="M26.5712 7.50995L15.6214 1.18039C15.5179 1.12829 15.3884 1.0762 15.2849 1.05023L3.01474 22.1746C3.11825 22.3048 3.24773 22.409 3.37708 22.4872L14.3271 28.8168C14.6377 28.999 15.0001 29.0511 15.3366 28.9469L26.856 7.74442C26.7784 7.64024 26.6749 7.56204 26.5712 7.50995Z" fill="url(#paint1_linear_68_267)"/>
<path d="M26.5713 22.4868C26.882 22.3044 27.115 21.9919 27.2185 21.6532L15.233 1.02373C14.9225 0.971637 14.5859 0.997615 14.3012 1.18L3.42889 7.48345L15.1554 28.9986C15.3107 28.9725 15.492 28.9204 15.6473 28.8423L26.5713 22.4868Z" fill="url(#paint2_linear_68_267)"/>
<defs>
<linearGradient id="paint0_linear_68_267" x1="19.4254" y1="5.89445" x2="9.47285" y2="26.072" gradientUnits="userSpaceOnUse">
<stop stop-color="#3F873F"/>
<stop offset="0.3296" stop-color="#3F8B3D"/>
<stop offset="0.6367" stop-color="#3E9638"/>
<stop offset="0.9341" stop-color="#3DA92E"/>
<stop offset="1" stop-color="#3DAE2B"/>
</linearGradient>
<linearGradient id="paint1_linear_68_267" x1="13.3308" y1="16.4798" x2="41.1002" y2="-3.91088" gradientUnits="userSpaceOnUse">
<stop offset="0.1376" stop-color="#3F873F"/>
<stop offset="0.4016" stop-color="#52A044"/>
<stop offset="0.7129" stop-color="#64B749"/>
<stop offset="0.9081" stop-color="#6ABF4B"/>
</linearGradient>
<linearGradient id="paint2_linear_68_267" x1="2.3822" y1="14.9941" x2="27.5999" y2="14.9941" gradientUnits="userSpaceOnUse">
<stop offset="0.0919165" stop-color="#6ABF4B"/>
<stop offset="0.2871" stop-color="#64B749"/>
<stop offset="0.5984" stop-color="#52A044"/>
<stop offset="0.8624" stop-color="#3F873F"/>
</linearGradient>
</defs>
</svg>
