<svg width="30" height="30" viewBox="0 0 30 30" fill="none" xmlns="http://www.w3.org/2000/svg">
<path d="M21.5267 21.2001C21.6999 19.758 21.6478 19.5476 22.7211 19.7803L22.9943 19.8048C23.82 19.842 24.8997 19.672 25.5448 19.3776C26.9104 18.7442 27.7202 17.6857 26.3737 17.9642C23.3025 18.5975 23.0793 17.5571 23.0793 17.5571C26.3238 12.743 27.6809 6.6324 26.5087 5.13715C23.3163 1.05631 17.7891 2.98621 17.6966 3.03722L17.6669 3.04253C17.0611 2.91501 16.3916 2.84062 15.6158 2.82999C14.2258 2.80874 13.1716 3.1945 12.3703 3.80132C12.3703 3.80132 2.51143 -0.260393 2.96946 8.9098C3.06723 10.861 5.76441 23.6816 8.98445 19.8027C10.163 18.385 11.3001 17.1873 11.3001 17.1873C11.8633 17.5625 12.5403 17.7537 13.2491 17.6847L13.3044 17.6379C13.288 17.8216 13.2955 18.0066 13.3267 18.1884C12.4978 19.1151 12.7422 19.2777 11.0844 19.6188C9.40741 19.9642 10.3936 20.5795 11.0355 20.741C11.8155 20.9366 13.62 21.2129 14.84 19.5062L14.7911 19.7006C15.1163 19.961 15.094 21.571 15.1418 22.7209C15.1897 23.8708 15.2651 24.9452 15.5 25.5775C15.7348 26.2098 16.0101 27.8411 18.1887 27.3841C20.0091 26.9941 21.4013 26.4319 21.5288 21.2097" fill="black"/>
<path d="M21.5267 21.2001C21.6999 19.758 21.6478 19.5476 22.7211 19.7803L22.9943 19.8048C23.82 19.842 24.8997 19.672 25.5448 19.3776C26.9104 18.7442 27.7202 17.6857 26.3737 17.9642C23.3025 18.5975 23.0793 17.5571 23.0793 17.5571C26.3238 12.743 27.6809 6.6324 26.5087 5.13715C23.3163 1.05631 17.7891 2.98621 17.6966 3.03722L17.6669 3.04253C17.0611 2.91501 16.3916 2.84062 15.6158 2.82999C14.2258 2.80874 13.1716 3.1945 12.3703 3.80132C12.3703 3.80132 2.51143 -0.260393 2.96946 8.9098C3.06723 10.861 5.76441 23.6816 8.98445 19.8027C10.163 18.385 11.3001 17.1873 11.3001 17.1873C11.8633 17.5625 12.5403 17.7537 13.2491 17.6847L13.3044 17.6379C13.288 17.8216 13.2955 18.0066 13.3267 18.1884C12.4978 19.1151 12.7422 19.2777 11.0844 19.6188C9.40741 19.9642 10.3936 20.5795 11.0355 20.741C11.8155 20.9366 13.62 21.2129 14.84 19.5062L14.7911 19.7006C15.1163 19.961 15.094 21.571 15.1418 22.7209C15.1897 23.8708 15.2651 24.9452 15.5 25.5775C15.7348 26.2098 16.0101 27.8411 18.1887 27.3841C20.0091 26.9941 21.4013 26.4319 21.5288 21.2097" stroke="black" stroke-width="3"/>
<path d="M26.3641 17.9737C23.2928 18.6071 23.0697 17.5667 23.0697 17.5667C26.3141 12.7526 27.6712 6.64196 26.5001 5.14672C23.3077 1.06588 17.7805 2.99684 17.688 3.04679L17.6583 3.0521C16.9832 2.91664 16.2968 2.84512 15.6083 2.83849C14.2183 2.81724 13.1641 3.20301 12.3628 3.80982C12.3628 3.80982 2.50287 -0.251891 2.96196 8.91831C3.05973 10.8695 5.75691 23.6901 8.97695 19.8112C10.1629 18.385 11.3 17.1873 11.3 17.1873C11.8633 17.5625 12.5402 17.7537 13.2491 17.6847L13.3043 17.6379C13.2881 17.8216 13.2956 18.0066 13.3267 18.1884C12.4977 19.1151 12.7422 19.2777 11.0843 19.6188C9.40735 19.9642 10.3935 20.5795 11.0354 20.741C11.8155 20.9366 13.62 21.2129 14.84 19.5062L14.7911 19.7006C15.1163 19.961 15.3437 21.3936 15.3054 22.6922C15.2672 23.9908 15.2417 24.8814 15.4967 25.5785C15.7518 26.2757 16.0068 27.8421 18.1854 27.3852C20.0058 26.9951 20.9485 25.9824 21.0813 24.2969C21.1748 23.0982 21.3852 23.2746 21.4001 22.2033L21.5702 21.6954C21.7646 20.0694 21.602 19.5455 22.7232 19.7899L22.9963 19.8144C23.8221 19.8516 24.9028 19.6815 25.5362 19.3871C26.9018 18.7538 27.7105 17.6953 26.3641 17.9737Z" fill="#336791"/>
<path d="M14.9707 18.8951C14.8857 21.9196 14.9919 24.9654 15.2874 25.6965C15.5828 26.4277 16.2172 27.8751 18.3969 27.4096C20.2173 27.0196 20.8805 26.264 21.1674 24.5966L21.8401 19.2649M12.3585 3.73331C12.3585 3.73331 2.49224 -0.300768 2.95133 8.86943C3.0491 10.8206 5.74628 23.6412 8.96632 19.7623C10.1417 18.3457 11.2044 17.2373 11.2044 17.2373M17.687 2.99685C17.3469 3.10312 23.1749 0.866096 26.4884 5.0989C27.6574 6.59415 26.3024 12.7048 23.058 17.5189" stroke="white" stroke-linecap="round" stroke-linejoin="round"/>
<path d="M23.0591 17.5168C23.0591 17.5168 23.2716 18.5582 26.3535 17.9227C27.7 17.6443 26.8891 18.7028 25.5246 19.3362C24.4045 19.8569 21.8922 19.9897 21.8508 19.2724C21.7445 17.418 23.1728 17.9812 23.0697 17.5168C22.9762 17.0981 22.3364 16.6879 21.9156 15.6634C21.5468 14.7707 16.8571 7.91619 23.2164 8.93321C23.4502 8.88539 21.5585 2.87571 15.6073 2.78857C9.65607 2.70143 9.84417 10.1054 9.84417 10.1054" stroke="white" stroke-linecap="round" stroke-linejoin="bevel"/>
<path d="M13.3055 18.1523C12.4766 19.079 12.721 19.2416 11.0631 19.5827C9.38618 19.9281 10.3724 20.5434 11.0143 20.7049C11.7943 20.9005 13.5988 21.1768 14.8188 19.469C15.1907 18.9483 14.8167 18.1193 14.3066 17.9089C14.06 17.8069 13.7306 17.6794 13.3076 18.1533L13.3055 18.1523Z" stroke="white" stroke-linejoin="round"/>
<path d="M13.2512 18.1363C13.1662 17.5912 13.4297 16.944 13.7113 16.1852C14.1343 15.0481 15.1099 13.911 14.3298 10.3009C13.7485 7.61223 9.84516 9.74085 9.84516 10.1054C9.84516 10.4699 10.0216 11.9545 9.7814 13.6814C9.46577 15.9365 11.2161 17.843 13.231 17.6485" stroke="white" stroke-linecap="round" stroke-linejoin="round"/>
<path d="M12.3225 10.0512C12.3044 10.1755 12.551 10.5081 12.8708 10.5528C13.1907 10.5974 13.4638 10.3381 13.4819 10.2127C13.5 10.0873 13.2534 9.95128 12.9335 9.90665C12.6137 9.86201 12.3384 9.9279 12.3225 10.0512Z" fill="white" stroke="white" stroke-width="0.5975"/>
<path d="M22.0612 9.79718C22.0782 9.92152 21.8327 10.2541 21.5128 10.2988C21.1929 10.3434 20.9177 10.0841 20.9017 9.95871C20.8858 9.83331 21.1302 9.69728 21.4501 9.65265C21.77 9.60801 22.0452 9.6739 22.0612 9.79718Z" fill="white" stroke="white" stroke-width="0.2975"/>
<path d="M23.2047 8.93533C23.2578 9.91303 22.9943 10.5772 22.9603 11.6176C22.9114 13.1288 23.6808 14.8589 22.5214 16.5912" stroke="white" stroke-linecap="round" stroke-linejoin="round"/>
</svg>
