<svg width="30" height="30" viewBox="0 0 30 30" fill="none" xmlns="http://www.w3.org/2000/svg">
<path d="M15 20.7746C22.0869 20.7746 27.8319 18.1893 27.8319 15.0002C27.8319 11.8111 22.0869 9.22583 15 9.22583C7.91309 9.22583 2.16803 11.8111 2.16803 15.0002C2.16803 18.1893 7.91309 20.7746 15 20.7746Z" stroke="#149ECA" stroke-width="1.3"/>
<path d="M9.99917 17.8872C13.5426 24.0246 18.6541 27.7073 21.4159 26.1128C24.1778 24.5182 23.5441 18.2502 20.0007 12.1128C16.4572 5.97537 11.3458 2.29264 8.58396 3.88719C5.82211 5.48174 6.45573 11.7498 9.99917 17.8872Z" stroke="#149ECA" stroke-width="1.3"/>
<path d="M9.99919 12.1128C6.45574 18.2502 5.82213 24.5183 8.58397 26.1128C11.3458 27.7074 16.4573 24.0246 20.0007 17.8872C23.5442 11.7498 24.1778 5.48176 21.4159 3.88721C18.6541 2.29266 13.5426 5.97539 9.99919 12.1128Z" stroke="#149ECA" stroke-width="1.3"/>
<path d="M14.9999 17.5663C16.4173 17.5663 17.5663 16.4173 17.5663 14.9999C17.5663 13.5825 16.4173 12.4335 14.9999 12.4335C13.5825 12.4335 12.4335 13.5825 12.4335 14.9999C12.4335 16.4173 13.5825 17.5663 14.9999 17.5663Z" fill="#149ECA"/>
</svg>
