<svg width="30" height="30" viewBox="0 0 30 30" fill="none" xmlns="http://www.w3.org/2000/svg">
<path d="M27.9015 21.494C26.4099 22.2742 18.6688 25.4582 17.0013 26.3322C15.3338 27.2061 14.4407 27.1812 13.1365 26.5578C11.8323 25.9344 3.62281 22.5955 2.13504 21.8841C1.38541 21.5323 1.00295 21.232 1.00295 20.9509V18.1188C1.00295 18.1188 11.7272 15.7915 13.4578 15.1643C15.1884 14.537 15.787 14.5217 17.2576 15.061C18.7281 15.6003 27.5439 17.1913 28.9991 17.7191V20.5111C28.9991 20.8018 28.6645 21.0848 27.9015 21.4921V21.494Z" fill="#A32422"/>
<path d="M27.9015 18.6753C26.4099 19.4517 18.6688 22.6357 17.0013 23.4943C15.3338 24.3529 14.4407 24.3453 13.1365 23.7238C11.8323 23.1023 3.62281 19.7634 2.13503 19.0577C0.647257 18.3521 0.618573 17.8587 2.07766 17.2889C3.53675 16.719 11.7272 13.512 13.4578 12.881C15.1884 12.2499 15.787 12.2365 17.2576 12.7777C18.7281 13.3189 26.4366 16.3805 27.8842 16.914C29.3319 17.4476 29.3988 17.8855 27.9015 18.66V18.6753Z" fill="#DC382C"/>
<path d="M27.9015 16.8815C26.4099 17.6598 18.6688 20.8419 17.0013 21.7005C15.3338 22.5592 14.4484 22.5515 13.1442 21.9262C11.84 21.3009 3.62281 17.9811 2.13504 17.2716C1.38541 16.916 1.00295 16.6176 1.00295 16.3346V13.512C1.00295 13.512 11.7272 11.1771 13.4578 10.5499C15.1884 9.92264 15.787 9.90543 17.2576 10.4524C18.7281 10.9993 27.5439 12.575 28.9991 13.1066V15.8986C28.9991 16.1893 28.6645 16.4799 27.9015 16.8815Z" fill="#A32422"/>
<path d="M27.9015 14.0494C26.4099 14.8296 18.6688 18.0117 17.0013 18.8703C15.3338 19.729 14.4407 19.7232 13.1365 19.0998C11.8323 18.4764 3.6228 15.1509 2.13503 14.4395C0.647255 13.7281 0.620482 13.2443 2.07766 12.6745C3.53484 12.1046 11.7272 8.89 13.4578 8.27615C15.1884 7.6623 15.787 7.62405 17.2576 8.15758C18.7281 8.69112 26.4366 11.7795 27.8842 12.2977C29.3319 12.816 29.3988 13.2711 27.9015 14.0437V14.0494Z" fill="#DC382C"/>
<path d="M27.9015 12.095C26.4099 12.8752 18.6688 16.0592 17.0013 16.916C15.3338 17.7727 14.4484 17.7669 13.1442 17.1454C11.84 16.5239 3.62281 13.1946 2.13504 12.4851C1.38541 12.1333 1.00295 11.833 1.00295 11.55V8.71789C1.00295 8.71789 11.7272 6.39061 13.4578 5.76529C15.1884 5.13996 15.787 5.12084 17.2576 5.66011C18.7281 6.19938 27.54 7.79042 28.9953 8.32204V11.114C28.9991 11.4085 28.6645 11.6954 27.9015 12.095Z" fill="#A32422"/>
<path d="M27.9013 9.2665C26.4097 10.0314 18.6687 13.2345 17.0011 14.0855C15.3336 14.9365 14.4406 14.9346 13.1364 14.315C11.8322 13.6954 3.62265 10.3623 2.13487 9.6547C0.647097 8.94715 0.618413 8.45569 2.0775 7.88582C3.53659 7.31595 11.727 4.10328 13.4576 3.47986C15.1883 2.85645 15.7868 2.83733 17.2574 3.3766C18.728 3.91587 26.4365 6.9813 27.8841 7.51292C29.3317 8.04454 29.3986 8.48628 27.9013 9.26077V9.2665Z" fill="#DC382C"/>
<path d="M15.4408 5.24515L17.2881 4.63895L16.7871 5.83605L18.6669 6.53978L16.244 6.7922L15.699 8.10022L14.8232 6.64113L12.0216 6.38871L14.1137 5.63526L13.4846 4.4764L15.4408 5.24515Z" fill="white"/>
<path d="M15.5575 12.881L11.0292 11.0012L17.5157 10.0049L15.5575 12.881Z" fill="white"/>
<path d="M9.2794 7.26645C11.1917 7.26645 12.7464 7.86883 12.7464 8.60507C12.7464 9.34131 11.1879 9.94368 9.2794 9.94368C7.37091 9.94368 5.81047 9.34131 5.81047 8.60507C5.81047 7.86883 7.36518 7.26645 9.2794 7.26645Z" fill="white"/>
<path d="M21.5373 6.89738L25.3753 8.41384L21.5411 9.9303L21.5373 6.89738Z" fill="#741113"/>
<path d="M21.5373 6.89738L21.5411 9.9303L21.1242 10.0928L17.2881 8.57639L21.5373 6.89738Z" fill="#AC2724"/>
</svg>
