<svg width="30" height="30" viewBox="0 0 30 30" fill="none" xmlns="http://www.w3.org/2000/svg">
<rect width="30" height="30" rx="1.5" fill="white"/>
<path d="M14.95 2C7.81065 2 2 7.81339 2 14.95C2 22.0866 7.81339 27.9 14.95 27.9C22.0866 27.9 27.9 22.0866 27.9 14.95C27.9 7.81339 22.0866 2 14.95 2ZM14.9308 3.15062C15.1522 3.15636 15.3627 3.24865 15.5172 3.40781C15.6718 3.56698 15.7583 3.78043 15.7582 4.00263C15.7582 4.2286 15.6684 4.44531 15.5086 4.6051C15.3488 4.76488 15.1321 4.85464 14.9062 4.85464C14.6802 4.85464 14.4635 4.76488 14.3037 4.6051C14.1439 4.44531 14.0542 4.2286 14.0542 4.00263C14.0541 3.88864 14.0769 3.7758 14.1213 3.67079C14.1656 3.56577 14.2306 3.47073 14.3124 3.39128C14.3941 3.31184 14.491 3.2496 14.5972 3.20826C14.7034 3.16693 14.8169 3.14732 14.9308 3.15062ZM16.8814 4.55329C18.3771 4.83344 19.7939 5.43583 21.0334 6.31861C22.2729 7.20139 23.3054 8.34341 24.0591 9.66535L23.0537 11.9337C22.8811 12.3255 23.0592 12.7857 23.4482 12.9611L25.3823 13.8186C25.4423 14.4231 25.4497 15.0318 25.4042 15.6376H24.3276C24.2207 15.6376 24.1769 15.7089 24.1769 15.813V16.3061C24.1769 17.4677 23.5221 17.7225 22.9468 17.7855C22.3989 17.8485 21.7935 17.5553 21.7168 17.2211C21.3935 15.4048 20.8565 15.0185 20.0073 14.3473C21.062 13.6788 22.1578 12.6898 22.1578 11.3694C22.1578 9.94205 21.1798 9.04346 20.5141 8.60239C19.5772 7.98598 18.5416 7.8627 18.2622 7.8627H7.13945C8.67746 6.14455 10.739 4.98138 13.0049 4.55329L14.3172 5.92856C14.613 6.23813 15.1034 6.25183 15.413 5.95322L16.8814 4.55329ZM4.77246 10.8598C4.99412 10.8662 5.20455 10.9588 5.35904 11.1179C5.51353 11.277 5.5999 11.4901 5.59981 11.7118C5.59981 11.9378 5.51004 12.1545 5.35026 12.3143C5.19048 12.4741 4.97377 12.5638 4.7478 12.5638C4.52183 12.5638 4.30512 12.4741 4.14534 12.3143C3.98555 12.1545 3.89579 11.9378 3.89579 11.7118C3.89574 11.5978 3.91857 11.485 3.96292 11.38C4.00727 11.275 4.07224 11.1799 4.15399 11.1005C4.23574 11.021 4.3326 10.9588 4.43883 10.9174C4.54506 10.8761 4.65851 10.8565 4.77246 10.8598ZM25.0865 10.8982C25.3081 10.9046 25.5185 10.9972 25.673 11.1563C25.8275 11.3154 25.9139 11.5284 25.9138 11.7502C25.9138 11.9761 25.824 12.1928 25.6643 12.3526C25.5045 12.5124 25.2878 12.6022 25.0618 12.6022C24.8358 12.6022 24.6191 12.5124 24.4593 12.3526C24.2995 12.1928 24.2098 11.9761 24.2098 11.7502C24.2097 11.6362 24.2326 11.5233 24.2769 11.4183C24.3213 11.3133 24.3862 11.2183 24.468 11.1388C24.5497 11.0594 24.6466 10.9971 24.7528 10.9558C24.8591 10.9145 24.9725 10.8949 25.0865 10.8982ZM6.37785 11.0351H7.8627V17.7307H4.8656C4.49545 16.4309 4.3801 15.0717 4.52589 13.7281L6.36141 12.9118C6.75317 12.7364 6.93125 12.2789 6.75591 11.8871L6.37785 11.0351ZM12.5748 11.1064H16.1116C16.2951 11.1064 17.4019 11.3173 17.4019 12.1474C17.4019 12.835 16.5527 13.0816 15.8541 13.0816H12.572L12.5748 11.1064ZM12.5748 15.9171H15.2842C15.5308 15.9171 16.6074 15.9883 16.9499 17.3636C17.0567 17.7855 17.2951 19.1607 17.4567 19.6018C17.6184 20.0949 18.2731 21.0812 18.9717 21.0812H23.3934C23.0971 21.478 22.773 21.8534 22.4236 22.2044L20.6237 21.8181C20.2045 21.7277 19.7908 21.9962 19.7004 22.4154L19.2731 24.4098C17.8988 25.0323 16.4063 25.3509 14.8976 25.3438C13.3889 25.3368 11.8994 25.0041 10.5311 24.3687L10.1037 22.3743C10.0133 21.9551 9.60234 21.6866 9.18318 21.777L7.42163 22.1551C7.09474 21.8179 6.79088 21.4591 6.51209 21.0812H15.0788C15.1746 21.0812 15.2404 21.0647 15.2404 20.9743V17.9444C15.2404 17.8567 15.1746 17.8375 15.0788 17.8375H12.572L12.5748 15.9171ZM8.62157 22.8564C8.84323 22.8628 9.05366 22.9554 9.20815 23.1145C9.36264 23.2736 9.44901 23.4867 9.44892 23.7084C9.44892 23.9344 9.35916 24.1511 9.19937 24.3109C9.03959 24.4707 8.82288 24.5605 8.59691 24.5605C8.37094 24.5605 8.15423 24.4707 7.99445 24.3109C7.83467 24.1511 7.7449 23.9344 7.7449 23.7084C7.74485 23.5944 7.76768 23.4816 7.81203 23.3766C7.85638 23.2716 7.92136 23.1765 8.0031 23.0971C8.08485 23.0176 8.18171 22.9554 8.28794 22.9141C8.39417 22.8727 8.50762 22.8531 8.62157 22.8564ZM21.2373 22.8948C21.459 22.9012 21.6694 22.9938 21.8239 23.1529C21.9784 23.312 22.0648 23.525 22.0647 23.7468C22.0647 23.9728 21.9749 24.1895 21.8151 24.3493C21.6554 24.509 21.4387 24.5988 21.2127 24.5988C20.9867 24.5988 20.77 24.509 20.6102 24.3493C20.4504 24.1895 20.3607 23.9728 20.3607 23.7468C20.3606 23.6328 20.3835 23.52 20.4278 23.4149C20.4722 23.3099 20.5371 23.2149 20.6189 23.1354C20.7006 23.056 20.7975 22.9938 20.9037 22.9524C21.0099 22.9111 21.1234 22.8915 21.2373 22.8948Z" fill="black"/>
<path fill-rule="evenodd" clip-rule="evenodd" d="M27.3117 15C27.3117 18.2653 26.0146 21.3968 23.7057 23.7057C21.3968 26.0146 18.2653 27.3117 15 27.3117C11.7347 27.3117 8.60319 26.0146 6.2943 23.7057C3.9854 21.3968 2.68828 18.2653 2.68828 15C2.68828 11.7347 3.9854 8.60319 6.2943 6.2943C8.60319 3.9854 11.7347 2.68828 15 2.68828C18.2653 2.68828 21.3968 3.9854 23.7057 6.2943C26.0146 8.60319 27.3117 11.7347 27.3117 15ZM27.08 13.811L29 15L27.08 16.189L28.7297 17.731L26.6166 18.5228L27.9352 20.3572L25.7034 20.7214L26.6414 22.7793L24.3821 22.6993L24.9007 24.9007L22.6993 24.3821L22.7793 26.6414L20.7214 25.7034L20.3572 27.9352L18.5228 26.6166L17.731 28.7297L16.189 27.08L15 29L13.811 27.08L12.269 28.7297L11.4772 26.6166L9.64276 27.9352L9.27862 25.7034L7.22069 26.6414L7.30069 24.3821L5.09931 24.9007L5.61793 22.6993L3.35862 22.7793L4.29655 20.7214L2.06483 20.3572L3.38345 18.5228L1.27035 17.731L2.92 16.189L1 15L2.92 13.811L1.27035 12.269L3.38345 11.4772L2.06483 9.64276L4.29655 9.27862L3.35862 7.22069L5.61793 7.30069L5.09931 5.09931L7.30069 5.61793L7.22069 3.35862L9.27862 4.29655L9.64276 2.06483L11.4772 3.38345L12.269 1.27034L13.811 2.92L15 1L16.189 2.92L17.731 1.27034L18.5228 3.38345L20.3572 2.06483L20.7214 4.29655L22.7793 3.35862L22.6993 5.61793L24.9007 5.09931L24.3821 7.30069L26.6414 7.22069L25.7034 9.27862L27.9352 9.64276L26.6166 11.4772L28.7297 12.269L27.08 13.811Z" fill="black" stroke="black" stroke-linecap="round" stroke-linejoin="round"/>
</svg>
