<svg width="30" height="30" viewBox="0 0 30 30" fill="none" xmlns="http://www.w3.org/2000/svg">
<rect x="1" y="1" width="28" height="28" rx="1.5" fill="white"/>
<path d="M14.1893 5.06248C14.1893 4.961 14.2093 4.86052 14.2482 4.76677C14.287 4.67302 14.3439 4.58783 14.4157 4.51608C14.4874 4.44432 14.5726 4.3874 14.6664 4.34857C14.7601 4.30974 14.8606 4.28975 14.9621 4.28975C15.0635 4.28975 15.164 4.30974 15.2578 4.34857C15.3515 4.3874 15.4367 4.44432 15.5085 4.51608C15.5802 4.58783 15.6371 4.67302 15.676 4.76677C15.7148 4.86052 15.7348 4.961 15.7348 5.06248C15.7348 5.26742 15.6534 5.46397 15.5085 5.60888C15.3635 5.7538 15.167 5.83521 14.9621 5.83521C14.7571 5.83521 14.5606 5.7538 14.4157 5.60888C14.2707 5.46397 14.1893 5.26742 14.1893 5.06248ZM4.9702 12.0585C4.9702 11.957 4.99019 11.8565 5.02902 11.7628C5.06786 11.669 5.12478 11.5838 5.19653 11.5121C5.26829 11.4403 5.35347 11.3834 5.44722 11.3446C5.54098 11.3057 5.64146 11.2858 5.74293 11.2858C5.84441 11.2858 5.94489 11.3057 6.03865 11.3446C6.1324 11.3834 6.21758 11.4403 6.28934 11.5121C6.36109 11.5838 6.41801 11.669 6.45684 11.7628C6.49568 11.8565 6.51566 11.957 6.51566 12.0585C6.51566 12.2634 6.43425 12.46 6.28934 12.6049C6.14442 12.7498 5.94787 12.8312 5.74293 12.8312C5.53799 12.8312 5.34145 12.7498 5.19653 12.6049C5.05162 12.46 4.9702 12.2634 4.9702 12.0585ZM23.4085 12.0942C23.4085 11.8893 23.4899 11.6928 23.6348 11.5478C23.7797 11.4029 23.9762 11.3215 24.1812 11.3215C24.3861 11.3215 24.5827 11.4029 24.7276 11.5478C24.8725 11.6928 24.9539 11.8893 24.9539 12.0942C24.9539 12.2992 24.8725 12.4957 24.7276 12.6406C24.5827 12.7856 24.3861 12.867 24.1812 12.867C23.9762 12.867 23.7797 12.7856 23.6348 12.6406C23.4899 12.4957 23.4085 12.2992 23.4085 12.0942ZM7.20633 13.1554C7.37707 13.0792 7.51065 12.9384 7.57781 12.7638C7.64496 12.5893 7.64024 12.3953 7.56466 12.2242L7.22177 11.4491H8.57059V17.5269H5.84938C5.51361 16.3474 5.40904 15.1141 5.54142 13.8948L7.20633 13.1554ZM12.847 13.3049V11.5133H16.0582C16.2239 11.5133 17.2282 11.705 17.2282 12.4558C17.2282 13.0799 16.4563 13.3041 15.8225 13.3041L12.847 13.3049ZM8.46252 22.9506C8.46252 22.8492 8.48251 22.7487 8.52134 22.6549C8.56017 22.5612 8.61709 22.476 8.68885 22.4042C8.7606 22.3325 8.84579 22.2756 8.93954 22.2367C9.03329 22.1979 9.13377 22.1779 9.23525 22.1779C9.33673 22.1779 9.43721 22.1979 9.53096 22.2367C9.62471 22.2756 9.7099 22.3325 9.78165 22.4042C9.85341 22.476 9.91033 22.5612 9.94916 22.6549C9.98799 22.7487 10.008 22.8492 10.008 22.9506C10.008 23.1556 9.92657 23.3521 9.78165 23.497C9.63674 23.642 9.44019 23.7234 9.23525 23.7234C9.03031 23.7234 8.83376 23.642 8.68885 23.497C8.54393 23.3521 8.46252 23.1556 8.46252 22.9506ZM19.9137 22.9864C19.9137 22.7815 19.9951 22.5849 20.14 22.44C20.2849 22.2951 20.4815 22.2137 20.6864 22.2137C20.8914 22.2137 21.0879 22.2951 21.2328 22.44C21.3778 22.5849 21.4592 22.7815 21.4592 22.9864C21.4592 23.1913 21.3778 23.3879 21.2328 23.5328C21.0879 23.6777 20.8914 23.7591 20.6864 23.7591C20.4815 23.7591 20.2849 23.6777 20.14 23.5328C19.9951 23.3879 19.9137 23.1913 19.9137 22.9864ZM20.1526 21.2337C19.7707 21.1525 19.3969 21.3946 19.3157 21.7757L18.9281 23.5861C17.6807 24.151 16.326 24.4401 14.9567 24.4335C13.5873 24.4269 12.2355 24.1248 10.9936 23.5479L10.606 21.7375C10.5248 21.3556 10.151 21.1135 9.76909 21.1955L8.17082 21.5384C7.87385 21.2326 7.59778 20.9071 7.34446 20.5642H15.1205C15.2083 20.5642 15.2668 20.548 15.2668 20.4683V17.7179C15.2668 17.6366 15.2083 17.622 15.1205 17.622H12.8454V15.8783H15.305C15.5292 15.8783 16.5051 15.9433 16.8179 17.1897L17.277 19.2211C17.4233 19.668 18.0189 20.5642 18.6526 20.5642H22.6666C22.3972 20.9245 22.1026 21.2653 21.785 21.5839L20.1526 21.2337ZM24.4705 13.9712C24.5251 14.5202 24.5319 15.0729 24.4908 15.6231H23.5157C23.4182 15.6231 23.3776 15.6881 23.3776 15.7832V16.2317C23.3776 17.288 22.7828 17.5155 22.2611 17.5749C21.7655 17.6317 21.213 17.3668 21.1463 17.0629C20.8538 15.4151 20.3663 15.0641 19.6025 14.4547C20.5589 13.8469 21.5542 12.9515 21.5542 11.7513C21.5542 10.4561 20.6661 9.64035 20.0608 9.24058C19.2117 8.67993 18.2716 8.56861 18.018 8.56861H7.91405C9.30973 7.00913 11.1806 5.95331 13.237 5.56463L14.4274 6.81351C14.6955 7.09547 15.1424 7.10603 15.4236 6.83626L16.7562 5.56301C18.1136 5.81717 19.3993 6.36376 20.5243 7.16482C21.6492 7.96588 22.5862 9.0022 23.2703 10.2018L22.3587 12.2608C22.2831 12.4319 22.2783 12.6259 22.3455 12.8004C22.4127 12.9749 22.5462 13.1157 22.717 13.192L24.4705 13.9712ZM26.744 14.0037L26.7131 13.6852L27.6524 12.8093C27.8433 12.6305 27.7718 12.273 27.5281 12.182L26.3279 11.7335L26.2337 11.4247L26.9812 10.3846C27.134 10.1734 26.9934 9.83618 26.7375 9.79393L25.4715 9.58835L25.3196 9.30396L25.8518 8.13634C25.9607 7.89826 25.7583 7.59437 25.4967 7.60412L24.2129 7.64881L24.0097 7.40261L24.3047 6.15129C24.364 5.89696 24.1064 5.63939 23.8521 5.6987L22.6008 5.99366L22.3538 5.79052L22.3985 4.5067C22.4082 4.24669 22.1043 4.04355 21.8671 4.15162L20.7003 4.68383L20.4159 4.53108L20.2095 3.26513C20.1688 3.00837 19.83 2.86861 19.6188 3.02137L18.5787 3.76891L18.2699 3.67547L17.8214 2.47534C17.7304 2.23158 17.3721 2.16007 17.1941 2.35021L16.3182 3.28951L15.9997 3.25863L15.3236 2.16576C15.1871 1.94475 14.8199 1.94475 14.6842 2.16576L14.0081 3.25863L13.6896 3.28951L12.8121 2.34858C12.6333 2.15845 12.2758 2.22914 12.1848 2.47371L11.7363 3.67384L11.4275 3.76728L10.3874 3.01974C10.1762 2.86698 9.83816 3.00756 9.79672 3.26351L9.59033 4.52945L9.30594 4.68221L8.13913 4.14999C7.90186 4.04192 7.59716 4.24506 7.60772 4.50507L7.65241 5.78889L7.4054 5.99203L6.15408 5.69708C5.89976 5.63776 5.64218 5.89534 5.70149 6.14966L5.99645 7.40098L5.79331 7.64718L4.50949 7.60249C4.24948 7.59437 4.04634 7.89664 4.15441 8.13471L4.68663 9.30234L4.53387 9.58673L3.26792 9.7923C3.01116 9.83293 2.8714 10.1718 3.02416 10.383L3.7717 11.4231L3.67745 11.7318L2.47732 12.1804C2.23355 12.2714 2.16205 12.6297 2.353 12.8077L3.2923 13.6836L3.26142 14.0021L2.16855 14.6781C1.94754 14.8146 1.94754 15.1819 2.16855 15.3176L3.26142 15.9936L3.2923 16.3122L2.35056 17.1913C2.16043 17.3701 2.23112 17.7276 2.47488 17.8186L3.67501 18.2671L3.76926 18.5759L3.02172 19.616C2.86978 19.8272 3.00953 20.1652 3.26549 20.2067L4.53062 20.4123L4.68338 20.6966L4.15116 21.8635C4.04309 22.1007 4.24704 22.4054 4.50624 22.3957L5.79006 22.351L5.9932 22.598L5.69824 23.8493C5.63893 24.1028 5.8965 24.3612 6.15083 24.3011L7.40215 24.0061L7.64916 24.2093L7.60447 25.4931C7.59472 25.7531 7.89861 25.9562 8.13588 25.8482L9.30269 25.316L9.58708 25.4687L9.79347 26.7339C9.8341 26.9914 10.1729 27.1304 10.3842 26.9792L11.4242 26.2301L11.733 26.3243L12.1815 27.5245C12.2725 27.7682 12.6309 27.8397 12.8088 27.6488L13.6847 26.7095L14.0033 26.742L14.6793 27.8349C14.8158 28.0542 15.1814 28.0559 15.3188 27.8349L15.9948 26.742L16.3133 26.7095L17.1892 27.6488C17.368 27.8397 17.7255 27.7682 17.8165 27.5245L18.2651 26.3243L18.5738 26.2301L19.6139 26.9792C19.8251 27.1312 20.1632 26.9914 20.2046 26.7339L20.411 25.4687L20.6954 25.316L21.8622 25.8482C22.0995 25.9562 22.4033 25.7539 22.3936 25.4931L22.3489 24.2093L22.5951 24.0061L23.8464 24.3011C24.1007 24.3604 24.3583 24.1028 24.299 23.8493L24.0041 22.598L24.2072 22.351L25.491 22.3957C25.751 22.4062 25.9542 22.1007 25.8461 21.8635L25.3139 20.6966L25.4658 20.4123L26.7318 20.2067C26.9893 20.1661 27.1299 19.828 26.9755 19.616L26.228 18.5759L26.3222 18.2671L27.5224 17.8186C27.7661 17.7268 27.8376 17.3693 27.6467 17.1913L26.7074 16.3154L26.7383 15.9969L27.8311 15.3209C28.0522 15.1843 28.053 14.8187 27.8311 14.6814L26.744 14.0037Z" fill="black"/>
</svg>
