<svg width="28" height="28" viewBox="0 0 28 28" fill="none" xmlns="http://www.w3.org/2000/svg">
<rect width="28" height="28" rx="1.5" fill="white"/>
<path d="M14 1.82933C7.29031 1.82933 1.82935 7.29287 1.82935 14C1.82935 20.7071 7.29289 26.1707 14 26.1707C20.7071 26.1707 26.1707 20.7071 26.1707 14C26.1707 7.29287 20.7071 1.82933 14 1.82933ZM13.982 2.91071C14.1901 2.9161 14.3878 3.00284 14.5331 3.15242C14.6784 3.30201 14.7596 3.50261 14.7596 3.71145C14.7596 3.92381 14.6752 4.12748 14.525 4.27765C14.3749 4.42782 14.1712 4.51218 13.9588 4.51218C13.7464 4.51218 13.5428 4.42782 13.3926 4.27765C13.2424 4.12748 13.1581 3.92381 13.1581 3.71145C13.158 3.60431 13.1795 3.49826 13.2212 3.39957C13.2629 3.30088 13.3239 3.21155 13.4007 3.13689C13.4776 3.06222 13.5686 3.00373 13.6684 2.96488C13.7683 2.92603 13.8749 2.90761 13.982 2.91071ZM15.8152 4.22896C17.2209 4.49225 18.5524 5.05839 19.7173 5.88805C20.8822 6.7177 21.8526 7.79099 22.5609 9.03338L21.616 11.1652C21.4538 11.5334 21.6212 11.966 21.9868 12.1308L23.8045 12.9366C23.8609 13.5048 23.8678 14.0769 23.8251 14.6462H22.8133C22.7128 14.6462 22.6716 14.7132 22.6716 14.811V15.2745C22.6716 16.3662 22.0563 16.6056 21.5156 16.6648C21.0007 16.724 20.4316 16.4485 20.3596 16.1344C20.0557 14.4274 19.5511 14.0644 18.7529 13.4336C19.7442 12.8053 20.7741 11.8759 20.7741 10.6348C20.7741 9.29342 19.8549 8.44892 19.2293 8.03439C18.3487 7.45508 17.3755 7.33922 17.1128 7.33922H6.65951C8.10495 5.72446 10.0424 4.63129 12.172 4.22896L13.4053 5.52147C13.6833 5.81241 14.1442 5.82528 14.4351 5.54464L15.8152 4.22896ZM4.43496 10.156C4.64328 10.162 4.84105 10.249 4.98624 10.3985C5.13143 10.548 5.2126 10.7483 5.21252 10.9567C5.21252 11.1691 5.12815 11.3727 4.97799 11.5229C4.82782 11.6731 4.62415 11.7574 4.41178 11.7574C4.19941 11.7574 3.99574 11.6731 3.84558 11.5229C3.69541 11.3727 3.61105 11.1691 3.61105 10.9567C3.611 10.8496 3.63246 10.7435 3.67414 10.6448C3.71582 10.5461 3.77688 10.4568 3.85371 10.3821C3.93054 10.3075 4.02157 10.249 4.12141 10.2101C4.22125 10.1713 4.32787 10.1529 4.43496 10.156ZM23.5265 10.192C23.7348 10.198 23.9325 10.285 24.0777 10.4346C24.2229 10.5841 24.3041 10.7843 24.304 10.9927C24.304 11.2051 24.2196 11.4088 24.0695 11.5589C23.9193 11.7091 23.7156 11.7935 23.5033 11.7935C23.2909 11.7935 23.0872 11.7091 22.9371 11.5589C22.7869 11.4088 22.7025 11.2051 22.7025 10.9927C22.7025 10.8856 22.7239 10.7795 22.7656 10.6809C22.8073 10.5822 22.8684 10.4928 22.9452 10.4182C23.022 10.3435 23.1131 10.285 23.2129 10.2462C23.3127 10.2073 23.4194 10.1889 23.5265 10.192ZM5.94374 10.3207H7.33923V16.6133H4.5225C4.17462 15.3917 4.06621 14.1144 4.20323 12.8517L5.92829 12.0844C6.29647 11.9196 6.46383 11.4897 6.29905 11.1215L5.94374 10.3207ZM11.7677 10.3877H15.0917C15.2642 10.3877 16.3044 10.5859 16.3044 11.3661C16.3044 12.0123 15.5062 12.244 14.8497 12.244H11.7652L11.7677 10.3877ZM11.7677 14.9089H14.3141C14.5459 14.9089 15.5577 14.9758 15.8796 16.2683C15.98 16.6648 16.204 17.9573 16.3559 18.3719C16.5078 18.8353 17.1231 19.7622 17.7797 19.7622H21.9353C21.6568 20.1352 21.3522 20.4879 21.0238 20.8178L19.3322 20.4548C18.9383 20.3698 18.5495 20.6222 18.4646 21.0161L18.0629 22.8905C16.7713 23.4756 15.3687 23.775 13.9507 23.7683C12.5328 23.7617 11.133 23.4491 9.847 22.8519L9.44535 20.9775C9.36038 20.5835 8.97417 20.3312 8.58024 20.4162L6.9247 20.7715C6.61748 20.4546 6.33191 20.1174 6.0699 19.7622H14.121C14.2111 19.7622 14.2729 19.7468 14.2729 19.6618V16.8142C14.2729 16.7318 14.2111 16.7137 14.121 16.7137H11.7652L11.7677 14.9089ZM8.05243 21.4306C8.26075 21.4366 8.45852 21.5237 8.60371 21.6732C8.7489 21.8227 8.83008 22.0229 8.82999 22.2314C8.82999 22.4437 8.74563 22.6474 8.59546 22.7976C8.44529 22.9477 8.24162 23.0321 8.02925 23.0321C7.81689 23.0321 7.61321 22.9477 7.46305 22.7976C7.31288 22.6474 7.22852 22.4437 7.22852 22.2314C7.22847 22.1242 7.24993 22.0182 7.29161 21.9195C7.33329 21.8208 7.39435 21.7315 7.47118 21.6568C7.54801 21.5821 7.63904 21.5236 7.73888 21.4848C7.83872 21.4459 7.94534 21.4275 8.05243 21.4306ZM19.909 21.4667C20.1173 21.4727 20.3151 21.5597 20.4603 21.7092C20.6055 21.8587 20.6866 22.059 20.6865 22.2674C20.6865 22.4798 20.6022 22.6834 20.452 22.8336C20.3018 22.9838 20.0982 23.0681 19.8858 23.0681C19.6734 23.0681 19.4698 22.9838 19.3196 22.8336C19.1694 22.6834 19.0851 22.4798 19.0851 22.2674C19.085 22.1603 19.1065 22.0542 19.1482 21.9555C19.1898 21.8568 19.2509 21.7675 19.3277 21.6928C19.4046 21.6182 19.4956 21.5597 19.5954 21.5208C19.6953 21.482 19.8019 21.4636 19.909 21.4667Z" fill="black"/>
<path fill-rule="evenodd" clip-rule="evenodd" d="M25.4909 14C25.4909 17.0476 24.2803 19.9704 22.1253 22.1253C19.9704 24.2803 17.0476 25.4909 14 25.4909C10.9524 25.4909 8.02965 24.2803 5.87468 22.1253C3.71971 19.9704 2.50906 17.0476 2.50906 14C2.50906 10.9524 3.71971 8.02965 5.87468 5.87468C8.02965 3.71971 10.9524 2.50906 14 2.50906C17.0476 2.50906 19.9704 3.71971 22.1253 5.87468C24.2803 8.02965 25.4909 10.9524 25.4909 14ZM25.2747 12.8903L27.0667 14L25.2747 15.1097L26.8143 16.549L24.8421 17.2879L26.0728 19.0001L23.9899 19.34L24.8653 21.2607L22.7566 21.186L23.2406 23.2406L21.186 22.7566L21.2607 24.8653L19.34 23.9899L19.0001 26.0728L17.2879 24.8421L16.549 26.8143L15.1097 25.2747L14 27.0667L12.8903 25.2747L11.451 26.8143L10.7121 24.8421L8.99991 26.0728L8.66005 23.9899L6.73931 24.8653L6.81398 22.7566L4.75936 23.2406L5.2434 21.186L3.13471 21.2607L4.01012 19.34L1.92717 19.0001L3.15789 17.2879L1.18566 16.549L2.72533 15.1097L0.933334 14L2.72533 12.8903L1.18566 11.451L3.15789 10.7121L1.92717 8.99991L4.01012 8.66005L3.13471 6.73931L5.2434 6.81398L4.75936 4.75936L6.81398 5.2434L6.73931 3.13471L8.66005 4.01012L8.99991 1.92717L10.7121 3.15789L11.451 1.18566L12.8903 2.72533L14 0.933334L15.1097 2.72533L16.549 1.18566L17.2879 3.15789L19.0001 1.92717L19.34 4.01012L21.2607 3.13471L21.186 5.2434L23.2406 4.75936L22.7566 6.81398L24.8653 6.73931L23.9899 8.66005L26.0728 8.99991L24.8421 10.7121L26.8143 11.451L25.2747 12.8903Z" fill="black" stroke="black" stroke-linecap="round" stroke-linejoin="round"/>
</svg>
