<svg width="30" height="30" viewBox="0 0 30 30" fill="none" xmlns="http://www.w3.org/2000/svg">
<path d="M17.3002 28.5348C16.5848 29.4356 15.1345 28.9421 15.1173 27.7919L14.8652 10.9689H26.177C28.2258 10.9689 29.3685 13.3354 28.0945 14.94L17.3002 28.5348Z" fill="url(#paint0_linear_68_234)"/>
<path d="M17.3002 28.5348C16.5848 29.4356 15.1345 28.9421 15.1173 27.7919L14.8652 10.9689H26.177C28.2258 10.9689 29.3685 13.3354 28.0945 14.94L17.3002 28.5348Z" fill="url(#paint1_linear_68_234)" fill-opacity="0.2"/>
<path d="M12.6998 1.46526C13.4151 0.564365 14.8655 1.05799 14.8827 2.2082L14.9931 19.0311H3.82297C1.77405 19.0311 0.631326 16.6647 1.90541 15.0601L12.6998 1.46526Z" fill="#3ECF8E"/>
<defs>
<linearGradient id="paint0_linear_68_234" x1="14.8652" y1="14.699" x2="24.9187" y2="18.9154" gradientUnits="userSpaceOnUse">
<stop stop-color="#249361"/>
<stop offset="1" stop-color="#3ECF8E"/>
</linearGradient>
<linearGradient id="paint1_linear_68_234" x1="10.408" y1="8.5963" x2="14.993" y2="17.2272" gradientUnits="userSpaceOnUse">
<stop/>
<stop offset="1" stop-opacity="0"/>
</linearGradient>
</defs>
</svg>
