<svg width="30" height="30" viewBox="0 0 30 30" fill="none" xmlns="http://www.w3.org/2000/svg">
<path d="M25.1635 4.70467C22.5635 0.983468 17.4283 -0.119517 13.7156 2.24595L7.19646 6.40189C6.31531 6.9559 5.55948 7.68771 4.97731 8.55051C4.39513 9.41331 3.99943 10.3881 3.8155 11.4126C3.50454 13.138 3.77797 14.9178 4.59249 16.4703C4.03427 17.3169 3.65352 18.268 3.47326 19.266C3.28756 20.311 3.31238 21.3825 3.54626 22.4178C3.78013 23.453 4.21836 24.4312 4.83524 25.2949C7.4352 29.0166 12.5706 30.1198 16.2828 27.7536L22.8035 23.5977C23.6844 23.0436 24.44 22.3117 25.0219 21.4489C25.6038 20.5861 25.9993 19.6113 26.1829 18.587C26.4944 16.8617 26.2217 15.0819 25.408 13.529C25.9658 12.6823 26.3463 11.7314 26.5264 10.7336C26.7124 9.68862 26.6877 8.61703 26.4539 7.58173C26.22 6.54643 25.7817 5.56828 25.1647 4.70467" fill="#FF3E00"/>
<path d="M13.0787 25.6451C12.0525 25.9119 10.9692 25.8573 9.9751 25.4888C8.98096 25.1202 8.12384 24.4555 7.51949 23.5844C7.14858 23.0651 6.88508 22.477 6.74445 21.8545C6.60381 21.2321 6.58887 20.5878 6.7005 19.9595C6.73829 19.7532 6.79033 19.5498 6.85625 19.3507L6.979 18.9757L7.31324 19.221C8.08446 19.788 8.94684 20.2192 9.86321 20.4959L10.1055 20.5694L10.0832 20.8114C10.0538 21.1553 10.147 21.4985 10.3465 21.7802C10.5284 22.0428 10.7866 22.2432 11.0862 22.3543C11.3858 22.4654 11.7122 22.4819 12.0214 22.4014C12.1629 22.3638 12.2978 22.3048 12.4214 22.2264L18.9418 18.07C19.1014 17.9695 19.2383 17.8369 19.3438 17.6806C19.4493 17.5244 19.5211 17.3478 19.5546 17.1622C19.588 16.9728 19.5834 16.7786 19.541 16.591C19.4986 16.4034 19.4192 16.2261 19.3076 16.0695C19.1256 15.8069 18.8674 15.6065 18.5678 15.4953C18.2683 15.3841 17.9419 15.3675 17.6326 15.4478C17.4911 15.4854 17.3563 15.5444 17.2326 15.6228L14.7444 17.209C14.3349 17.4691 13.8881 17.6652 13.4194 17.7905C12.3933 18.0573 11.31 18.0027 10.3158 17.6342C9.32167 17.2657 8.46456 16.6009 7.86024 15.7298C7.48922 15.2105 7.22564 14.6224 7.08496 13.9999C6.94428 13.3774 6.92933 12.7331 7.041 12.1048C7.15181 11.4888 7.38997 10.9027 7.74025 10.3839C8.09052 9.86522 8.54521 9.42531 9.07522 9.09235L15.5964 4.93666C16.0058 4.67615 16.4526 4.47979 16.9214 4.35442C17.9475 4.08769 19.0308 4.14227 20.0249 4.51078C21.0191 4.8793 21.8762 5.544 22.4805 6.41514C22.8515 6.93442 23.115 7.52253 23.2557 8.145C23.3964 8.76747 23.4114 9.41176 23.2998 10.0401C23.2617 10.2463 23.2095 10.4497 23.1438 10.6488L23.021 11.0238L22.687 10.7791C21.9159 10.212 21.0535 9.78076 20.1371 9.5041L19.8946 9.4306L19.9171 9.1886C19.9464 8.84454 19.8533 8.50118 19.6541 8.21912C19.4721 7.95653 19.2139 7.75614 18.9143 7.64504C18.6147 7.53394 18.2883 7.51747 17.9791 7.59788C17.8376 7.63549 17.7027 7.69451 17.5791 7.77287L11.0569 11.9296C10.8974 12.0299 10.7605 12.1625 10.6551 12.3187C10.5497 12.475 10.478 12.6515 10.4447 12.8371C10.4111 13.0265 10.4156 13.2207 10.4579 13.4084C10.5002 13.596 10.5795 13.7734 10.6912 13.93C10.8732 14.1926 11.1314 14.393 11.431 14.5042C11.7305 14.6154 12.0569 14.632 12.3662 14.5518C12.5076 14.5141 12.6425 14.4551 12.7662 14.3768L15.2541 12.7913C15.6634 12.5307 16.1103 12.3344 16.5791 12.2093C17.6052 11.9426 18.6885 11.9971 19.6826 12.3657C20.6767 12.7342 21.5338 13.3989 22.138 14.27C22.5091 14.7893 22.7726 15.3774 22.9133 15.9999C23.054 16.6223 23.0689 17.2667 22.9573 17.895C22.8467 18.511 22.6088 19.0972 22.2588 19.6161C21.9089 20.1349 21.4545 20.5751 20.9248 20.9084L14.4036 25.0629C13.9943 25.3234 13.5475 25.5198 13.0787 25.6451Z" fill="white"/>
</svg>
