<svg width="30" height="30" viewBox="0 0 30 30" fill="none" xmlns="http://www.w3.org/2000/svg">
<path fill-rule="evenodd" clip-rule="evenodd" d="M15.0003 6.60001C11.2666 6.60001 8.93369 8.4668 7.99986 12.2004C9.40005 10.3336 11.0334 9.63368 12.9 10.1001C13.9649 10.3662 14.7265 11.1389 15.5687 11.9945C16.9414 13.3877 18.5304 15 22.0001 15C25.7333 15 28.0667 13.1332 29 9.4002C27.6004 11.267 25.967 11.9669 24.1004 11.4999C23.0349 11.2339 22.2734 10.4611 21.4312 9.60609C20.0584 8.21179 18.47 6.60001 15.0003 6.60001ZM7.99986 15C4.26675 15 1.93328 16.8668 1 20.6004C2.40019 18.7336 4.03357 18.0337 5.89957 18.5001C6.96508 18.7662 7.72663 19.5389 8.56883 20.3945C9.94159 21.7877 11.53 23.4 15.0003 23.4C18.7334 23.4 21.0669 21.5338 22.0001 17.8002C20.5999 19.667 18.9666 20.3669 17.1 19.9005C16.0351 19.6339 15.2735 18.8611 14.4313 18.0061C13.0585 16.6129 11.4696 15 7.99986 15Z" fill="#38BDF8"/>
</svg>
