<svg width="30" height="30" viewBox="0 0 30 30" fill="none" xmlns="http://www.w3.org/2000/svg">
<rect x="1" y="1" width="28" height="28" rx="1.5" fill="#3178C6"/>
<path d="M17.63 17.093H14.1817V26.9657H11.4501V17.093H8.01867V14.8757H17.63V17.093Z" fill="white"/>
<path d="M18.7007 26.502V23.8041C19.1897 24.2144 19.7209 24.5235 20.2942 24.7315C20.8675 24.9338 21.4464 25.035 22.031 25.035C22.3738 25.035 22.6717 25.0041 22.9247 24.9423C23.1832 24.8804 23.3968 24.7961 23.5654 24.6893C23.7397 24.5769 23.8689 24.4477 23.9532 24.3015C24.0375 24.1498 24.0797 23.9868 24.0797 23.8125C24.0797 23.5764 24.0123 23.3657 23.8774 23.1802C23.7425 22.9947 23.557 22.8233 23.3209 22.6659C23.0905 22.5085 22.8151 22.3568 22.4947 22.2106C22.1743 22.0645 21.8286 21.9155 21.4577 21.7638C20.5134 21.3703 19.808 20.8898 19.3415 20.3221C18.8806 19.7544 18.6501 19.0687 18.6501 18.2649C18.6501 17.6354 18.7766 17.0958 19.0295 16.6462C19.2825 16.1909 19.6253 15.8171 20.0581 15.5249C20.4965 15.2326 21.0024 15.019 21.5757 14.8841C22.149 14.7436 22.756 14.6733 23.3968 14.6733C24.0263 14.6733 24.5828 14.7127 25.0661 14.7914C25.5551 14.8644 26.0048 14.9797 26.4151 15.137V17.6579C26.2127 17.5174 25.9907 17.3937 25.749 17.2869C25.513 17.1801 25.2685 17.093 25.0155 17.0256C24.7626 16.9525 24.5097 16.8991 24.2568 16.8654C24.0094 16.8317 23.7734 16.8148 23.5486 16.8148C23.2394 16.8148 22.9584 16.8457 22.7055 16.9075C22.4525 16.9637 22.2389 17.0452 22.0647 17.152C21.8905 17.2588 21.7556 17.3881 21.66 17.5399C21.5645 17.686 21.5167 17.8518 21.5167 18.0373C21.5167 18.2396 21.5701 18.4223 21.6769 18.5853C21.7837 18.7427 21.9354 18.8944 22.1321 19.0406C22.3289 19.1811 22.5677 19.3216 22.8488 19.4621C23.1298 19.597 23.4474 19.7375 23.8015 19.8837C24.2849 20.086 24.7176 20.3024 25.0999 20.5329C25.4877 20.7577 25.8193 21.0134 26.0947 21.3001C26.3701 21.5867 26.5809 21.9155 26.727 22.2865C26.8732 22.6519 26.9462 23.079 26.9462 23.568C26.9462 24.2425 26.817 24.8102 26.5584 25.2711C26.3055 25.7264 25.9598 26.0973 25.5214 26.384C25.083 26.665 24.5715 26.8673 23.987 26.991C23.408 27.1147 22.7954 27.1765 22.149 27.1765C21.4858 27.1765 20.8534 27.1203 20.252 27.0079C19.6562 26.8954 19.1391 26.7268 18.7007 26.502Z" fill="white"/>
</svg>
