<svg width="30" height="30" viewBox="0 0 30 30" fill="none" xmlns="http://www.w3.org/2000/svg">
<path d="M28.8899 5.14424L15.7534 28.6345C15.4822 29.1195 14.7853 29.1224 14.51 28.6398L1.1131 5.14651C0.813182 4.62056 1.26292 3.9835 1.85892 4.09003L15.0095 6.44061C15.0933 6.45561 15.1792 6.45546 15.2631 6.44018L28.1386 4.0934C28.7326 3.98514 29.1845 4.61727 28.8899 5.14424Z" fill="url(#paint0_linear_68_265)"/>
<path d="M21.2738 1.00691L11.5524 2.91178C11.3926 2.94308 11.2743 3.07849 11.2647 3.24099L10.6667 13.3407C10.6526 13.5786 10.8711 13.7633 11.1032 13.7097L13.8098 13.0851C14.063 13.0267 14.2919 13.2497 14.2398 13.5044L13.4357 17.442C13.3816 17.707 13.6304 17.9336 13.8892 17.855L15.5609 17.3471C15.8201 17.2684 16.0691 17.4957 16.0143 17.7609L14.7364 23.9461C14.6564 24.3329 15.171 24.5439 15.3856 24.2122L15.529 23.9907L23.4505 8.1819C23.5832 7.91721 23.3544 7.61539 23.0637 7.67149L20.2777 8.20918C20.0159 8.25965 19.7932 8.01584 19.8671 7.7597L21.6854 1.45616C21.7594 1.19958 21.5359 0.95556 21.2738 1.00691Z" fill="url(#paint1_linear_68_265)"/>
<defs>
<linearGradient id="paint0_linear_68_265" x1="0.786002" y1="3.25052" x2="17.1354" y2="25.4543" gradientUnits="userSpaceOnUse">
<stop stop-color="#41D1FF"/>
<stop offset="1" stop-color="#BD34FE"/>
</linearGradient>
<linearGradient id="paint1_linear_68_265" x1="14.2547" y1="1.52408" x2="17.2122" y2="21.8124" gradientUnits="userSpaceOnUse">
<stop stop-color="#FFEA83"/>
<stop offset="0.0833333" stop-color="#FFDD35"/>
<stop offset="1" stop-color="#FFA800"/>
</linearGradient>
</defs>
</svg>
