<svg width="30" height="30" viewBox="0 0 30 30" fill="none" xmlns="http://www.w3.org/2000/svg">
<path d="M22.0018 2.11681C22.0018 1.23785 21.0177 1.23784 20.5803 1.34771C21.1926 0.864277 21.9107 0.981483 22.1658 1.12798L28.0791 4.02748C28.6426 4.30376 29 4.87862 29 5.50858V24.5831C29 25.2215 28.6331 25.8025 28.0582 26.0743L22.4938 28.7054C22.1111 28.8702 21.2801 29.2767 20.5803 28.7054C21.455 28.8702 21.9289 28.2476 22.0018 27.8264V2.11681Z" fill="url(#paint0_linear_68_144)"/>
<path d="M20.6512 1.33181C21.1154 1.24008 22.0018 1.28262 22.0018 2.11676V8.68244L4.07359 22.2452C3.76022 22.4823 3.3192 22.443 3.05229 22.1541L1.20453 20.1547C0.915064 19.8415 0.935318 19.3512 1.24962 19.0632L20.5802 1.34766L20.6512 1.33181Z" fill="url(#paint1_linear_68_144)"/>
<path d="M22.0018 21.3706L4.07359 7.80782C3.76022 7.57075 3.3192 7.61009 3.05229 7.89891L1.20453 9.89831C0.915064 10.2115 0.935318 10.7018 1.24962 10.9899L20.5802 28.7054V28.7054C21.455 28.8702 21.9289 28.2476 22.0018 27.8264V21.3706Z" fill="url(#paint2_linear_68_144)"/>
<defs>
<linearGradient id="paint0_linear_68_144" x1="24.7901" y1="1.00002" x2="24.7901" y2="29" gradientUnits="userSpaceOnUse">
<stop stop-color="#32B5F1"/>
<stop offset="1" stop-color="#2B9FED"/>
</linearGradient>
<linearGradient id="paint1_linear_68_144" x1="22.0018" y1="4.53389" x2="2.0217" y2="21.305" gradientUnits="userSpaceOnUse">
<stop stop-color="#0F6FB3"/>
<stop offset="0.270551" stop-color="#1279B7"/>
<stop offset="0.421376" stop-color="#1176B5"/>
<stop offset="0.618197" stop-color="#0E69AC"/>
<stop offset="0.855344" stop-color="#0F70AF"/>
<stop offset="1" stop-color="#0F6DAD"/>
</linearGradient>
<linearGradient id="paint2_linear_68_144" x1="2.15522" y1="8.98369" x2="22.0791" y2="25.4806" gradientUnits="userSpaceOnUse">
<stop stop-color="#1791D2"/>
<stop offset="1" stop-color="#1173C5"/>
</linearGradient>
</defs>
</svg>
